<svg xmlns="http://www.w3.org/2000/svg" xmlns:xlink="http://www.w3.org/1999/xlink" width="500" zoomAndPan="magnify" viewBox="0 0 375 374.999991" height="500" preserveAspectRatio="xMidYMid meet" version="1.0"><defs><clipPath id="c64f249fd7"><path d="M 99 13.53125 L 276 13.53125 L 276 140 L 99 140 Z M 99 13.53125 " clip-rule="nonzero"/></clipPath><clipPath id="d84cc59b7b"><path d="M 85.761719 229 L 133 229 L 133 290.632812 L 85.761719 290.632812 Z M 85.761719 229 " clip-rule="nonzero"/></clipPath><clipPath id="72250bc0c6"><path d="M 242 229 L 288.96875 229 L 288.96875 290.632812 L 242 290.632812 Z M 242 229 " clip-rule="nonzero"/></clipPath><clipPath id="19dbfec45d"><path d="M 44.875 255.214844 L 330.1875 255.214844 L 330.1875 361.949219 L 44.875 361.949219 Z M 44.875 255.214844 " clip-rule="nonzero"/></clipPath></defs><path fill="#000000" d="M 247.371094 139.84375 L 247.371094 96.660156 C 247.371094 63.546875 220.460938 36.621094 187.363281 36.621094 C 154.265625 36.621094 127.355469 63.546875 127.355469 96.660156 L 127.355469 139.84375 C 121.910156 142.429688 118.125 147.972656 118.125 154.390625 C 118.125 163.304688 125.371094 170.554688 134.28125 170.554688 L 136.820312 170.554688 C 139.171875 196.417969 160.914062 216.738281 187.363281 216.738281 C 213.8125 216.738281 235.554688 196.417969 237.910156 170.554688 L 240.449219 170.554688 C 249.359375 170.554688 256.605469 163.304688 256.605469 154.390625 C 256.605469 147.972656 252.820312 142.476562 247.371094 139.84375 Z M 238.140625 138.226562 L 234.21875 138.226562 C 225.722656 135.917969 219.816406 128.296875 219.675781 119.476562 C 226.507812 121.414062 232.738281 123.957031 238.09375 127.003906 L 238.09375 138.179688 Z M 140.511719 138.226562 L 136.589844 138.226562 L 136.589844 127.050781 C 141.941406 124 148.175781 121.460938 155.007812 119.523438 C 154.867188 128.34375 148.960938 135.917969 140.464844 138.273438 Z M 127.355469 154.390625 C 127.355469 150.558594 130.449219 147.464844 134.28125 147.464844 L 136.589844 147.464844 L 136.589844 161.316406 L 134.28125 161.316406 C 130.449219 161.316406 127.355469 158.222656 127.355469 154.390625 Z M 187.363281 207.503906 C 164.46875 207.503906 145.820312 188.84375 145.820312 165.9375 L 145.820312 146.125 C 156.851562 141.828125 164.285156 131.253906 164.285156 119.199219 L 164.285156 117.304688 C 167.609375 116.660156 171.023438 116.152344 174.53125 115.828125 C 177.070312 115.597656 178.917969 113.332031 178.6875 110.792969 C 178.457031 108.253906 176.195312 106.453125 173.65625 106.636719 C 159.992188 108.023438 147.160156 111.53125 136.632812 116.613281 L 136.632812 108.578125 C 141.066406 106.035156 146.144531 103.773438 151.867188 101.972656 C 154.3125 101.1875 155.652344 98.601562 154.867188 96.152344 C 154.082031 93.707031 151.496094 92.367188 149.050781 93.152344 C 144.574219 94.582031 140.417969 96.246094 136.589844 98.140625 L 136.589844 96.660156 C 136.589844 68.628906 159.34375 45.859375 187.363281 45.859375 C 215.382812 45.859375 238.140625 68.628906 238.140625 96.660156 L 238.140625 98.140625 C 234.308594 96.292969 230.199219 94.582031 225.675781 93.152344 C 223.230469 92.367188 220.644531 93.707031 219.859375 96.152344 C 219.078125 98.601562 220.414062 101.1875 222.863281 101.972656 C 228.585938 103.820312 233.664062 106.035156 238.09375 108.578125 L 238.09375 116.613281 C 227.570312 111.484375 214.738281 107.976562 201.074219 106.636719 C 198.535156 106.40625 196.273438 108.253906 196.042969 110.792969 C 195.8125 113.332031 197.65625 115.597656 200.195312 115.828125 C 203.703125 116.195312 207.121094 116.703125 210.445312 117.304688 L 210.445312 119.199219 C 210.445312 131.296875 217.875 141.828125 228.910156 146.125 L 228.910156 165.9375 C 228.910156 188.84375 210.261719 207.503906 187.363281 207.503906 Z M 240.449219 161.316406 L 238.140625 161.316406 L 238.140625 147.464844 L 240.449219 147.464844 C 244.28125 147.464844 247.371094 150.558594 247.371094 154.390625 C 247.371094 158.222656 244.28125 161.316406 240.449219 161.316406 Z M 240.449219 161.316406 " fill-opacity="1" fill-rule="nonzero"/><path fill="#000000" d="M 187.363281 128.988281 C 186.488281 128.988281 185.5625 128.710938 184.78125 128.203125 C 183.949219 127.648438 164.285156 114.210938 164.285156 96.660156 C 164.285156 79.109375 183.949219 65.671875 184.78125 65.117188 C 186.347656 64.054688 188.378906 64.054688 189.949219 65.117188 C 190.78125 65.671875 210.445312 79.109375 210.445312 96.660156 C 210.445312 114.210938 190.78125 127.648438 189.949219 128.203125 C 189.164062 128.710938 188.289062 128.988281 187.363281 128.988281 Z M 187.363281 74.722656 C 182.75 78.464844 173.515625 87.148438 173.515625 96.660156 C 173.515625 106.175781 182.75 114.855469 187.363281 118.597656 C 191.980469 114.855469 201.210938 106.175781 201.210938 96.660156 C 201.210938 87.148438 191.980469 78.464844 187.363281 74.722656 Z M 187.363281 74.722656 " fill-opacity="1" fill-rule="nonzero"/><g clip-path="url(#c64f249fd7)"><path fill="#000000" d="M 249.402344 39.207031 C 232.785156 22.628906 210.769531 13.53125 187.363281 13.53125 C 163.960938 13.53125 141.941406 22.628906 125.324219 39.207031 C 108.753906 55.835938 99.660156 77.863281 99.660156 101.28125 C 99.660156 113.703125 102.199219 125.710938 107.230469 136.886719 C 108.292969 139.195312 111.015625 140.257812 113.324219 139.195312 C 115.632812 138.132812 116.691406 135.410156 115.632812 133.101562 C 111.800781 124.507812 109.675781 115.367188 109.121094 105.898438 L 113.507812 105.898438 C 116.046875 105.898438 118.125 103.820312 118.125 101.28125 C 118.125 98.738281 116.046875 96.660156 113.507812 96.660156 L 109.121094 96.660156 C 110.136719 78.972656 117.015625 62.4375 128.785156 49.183594 L 129.664062 50.0625 C 130.585938 50.984375 131.742188 51.402344 132.941406 51.402344 C 134.140625 51.402344 135.296875 50.9375 136.21875 50.0625 C 138.019531 48.261719 138.019531 45.351562 136.21875 43.550781 L 135.339844 42.671875 C 148.589844 30.894531 165.160156 24.015625 182.839844 22.996094 C 182.980469 25.445312 184.964844 27.386719 187.410156 27.386719 C 189.855469 27.386719 191.84375 25.445312 191.980469 22.996094 C 209.660156 24.015625 226.230469 30.847656 239.480469 42.671875 L 238.601562 43.550781 C 236.800781 45.351562 236.800781 48.261719 238.601562 50.0625 C 239.527344 50.984375 240.679688 51.402344 241.878906 51.402344 C 243.078125 51.402344 244.234375 50.9375 245.15625 50.0625 L 246.035156 49.183594 C 257.804688 62.4375 264.636719 79.019531 265.699219 96.660156 L 261.3125 96.660156 C 258.773438 96.660156 256.695312 98.738281 256.695312 101.28125 C 256.695312 103.820312 258.773438 105.898438 261.3125 105.898438 L 265.699219 105.898438 C 265.144531 115.367188 263.019531 124.507812 259.191406 133.101562 C 258.128906 135.410156 259.191406 138.179688 261.496094 139.195312 C 262.097656 139.472656 262.742188 139.613281 263.390625 139.613281 C 265.144531 139.613281 266.851562 138.597656 267.589844 136.886719 C 272.621094 125.710938 275.160156 113.703125 275.160156 101.28125 C 275.160156 77.863281 266.066406 55.835938 249.496094 39.207031 Z M 249.402344 39.207031 " fill-opacity="1" fill-rule="nonzero"/></g><path fill="#000000" d="M 187.363281 244.449219 C 186.808594 244.449219 174.070312 244.308594 161.421875 234.195312 C 160.316406 233.320312 159.667969 231.980469 159.667969 230.59375 L 159.667969 224.40625 C 159.667969 221.863281 161.746094 219.785156 164.285156 219.785156 C 166.824219 219.785156 168.898438 221.863281 168.898438 224.40625 L 168.898438 228.285156 C 178.316406 235.027344 187.273438 235.210938 187.410156 235.210938 C 187.457031 235.210938 196.410156 235.027344 205.828125 228.285156 L 205.828125 224.40625 C 205.828125 221.863281 207.90625 219.785156 210.445312 219.785156 C 212.984375 219.785156 215.058594 221.863281 215.058594 224.40625 L 215.058594 230.59375 C 215.058594 231.980469 214.414062 233.320312 213.304688 234.195312 C 200.660156 244.308594 187.871094 244.449219 187.363281 244.449219 Z M 187.363281 244.449219 " fill-opacity="1" fill-rule="nonzero"/><path fill="#000000" d="M 187.363281 281.394531 C 187.132812 281.394531 186.902344 281.394531 186.671875 281.351562 C 164.5625 277.980469 156.804688 264.03125 155.328125 254.886719 C 141.390625 248.511719 141.203125 231.378906 141.203125 230.59375 C 141.203125 228.054688 143.28125 225.976562 145.820312 225.976562 L 164.285156 225.976562 C 166.824219 225.976562 168.898438 228.054688 168.898438 230.59375 C 168.898438 233.132812 166.824219 235.210938 164.285156 235.210938 L 151.035156 235.210938 C 152.003906 239.414062 154.5 245.234375 161.007812 247.175781 C 162.945312 247.773438 164.285156 249.574219 164.285156 251.609375 C 164.285156 252.253906 164.839844 268.371094 187.363281 272.113281 C 209.890625 268.371094 210.445312 252.253906 210.445312 251.5625 C 210.445312 249.574219 211.78125 247.773438 213.722656 247.175781 C 220.183594 245.234375 222.675781 239.414062 223.691406 235.210938 L 210.445312 235.210938 C 207.90625 235.210938 205.828125 233.132812 205.828125 230.59375 C 205.828125 228.054688 207.90625 225.976562 210.445312 225.976562 L 228.910156 225.976562 C 231.449219 225.976562 233.523438 228.054688 233.523438 230.59375 C 233.523438 231.378906 233.339844 248.511719 219.398438 254.886719 C 217.921875 264.03125 210.167969 277.976562 188.058594 281.351562 C 187.824219 281.351562 187.59375 281.394531 187.363281 281.394531 Z M 187.363281 281.394531 " fill-opacity="1" fill-rule="nonzero"/><g clip-path="url(#d84cc59b7b)"><path fill="#000000" d="M 90.429688 290.632812 C 87.890625 290.632812 85.8125 288.554688 85.8125 286.015625 C 85.8125 260.519531 101.96875 237.753906 125.972656 229.394531 C 128.371094 228.5625 131.003906 229.808594 131.832031 232.257812 C 132.664062 234.65625 131.417969 237.289062 128.972656 238.121094 C 108.660156 245.1875 94.996094 264.445312 94.996094 286.0625 C 94.996094 288.601562 92.921875 290.679688 90.382812 290.679688 Z M 90.429688 290.632812 " fill-opacity="1" fill-rule="nonzero"/></g><g clip-path="url(#72250bc0c6)"><path fill="#000000" d="M 284.300781 290.632812 C 281.761719 290.632812 279.683594 288.554688 279.683594 286.015625 C 279.683594 264.445312 266.019531 245.1875 245.710938 238.074219 C 243.3125 237.246094 242.019531 234.613281 242.847656 232.210938 C 243.679688 229.808594 246.3125 228.515625 248.710938 229.347656 C 272.714844 237.707031 288.871094 260.476562 288.871094 285.96875 C 288.871094 288.507812 286.792969 290.585938 284.253906 290.585938 Z M 284.300781 290.632812 " fill-opacity="1" fill-rule="nonzero"/></g><path fill="#000000" d="M 191.980469 258.304688 C 191.980469 258.609375 191.949219 258.90625 191.890625 259.207031 C 191.832031 259.503906 191.746094 259.792969 191.628906 260.070312 C 191.511719 260.351562 191.371094 260.617188 191.203125 260.871094 C 191.035156 261.121094 190.84375 261.355469 190.628906 261.570312 C 190.414062 261.785156 190.179688 261.976562 189.929688 262.144531 C 189.675781 262.3125 189.410156 262.453125 189.128906 262.570312 C 188.851562 262.6875 188.5625 262.773438 188.265625 262.832031 C 187.96875 262.894531 187.667969 262.921875 187.363281 262.921875 C 187.0625 262.921875 186.761719 262.894531 186.464844 262.832031 C 186.167969 262.773438 185.878906 262.6875 185.597656 262.570312 C 185.316406 262.453125 185.050781 262.3125 184.800781 262.144531 C 184.546875 261.976562 184.316406 261.785156 184.101562 261.570312 C 183.886719 261.355469 183.695312 261.121094 183.527344 260.871094 C 183.359375 260.617188 183.214844 260.351562 183.101562 260.070312 C 182.984375 259.792969 182.894531 259.503906 182.835938 259.207031 C 182.777344 258.90625 182.75 258.609375 182.75 258.304688 C 182.75 258 182.777344 257.699219 182.835938 257.402344 C 182.894531 257.105469 182.984375 256.816406 183.101562 256.535156 C 183.214844 256.257812 183.359375 255.992188 183.527344 255.738281 C 183.695312 255.484375 183.886719 255.253906 184.101562 255.039062 C 184.316406 254.824219 184.546875 254.632812 184.800781 254.464844 C 185.050781 254.296875 185.316406 254.152344 185.597656 254.039062 C 185.878906 253.921875 186.167969 253.832031 186.464844 253.773438 C 186.761719 253.714844 187.0625 253.6875 187.363281 253.6875 C 187.667969 253.6875 187.96875 253.714844 188.265625 253.773438 C 188.5625 253.832031 188.851562 253.921875 189.128906 254.039062 C 189.410156 254.152344 189.675781 254.296875 189.929688 254.464844 C 190.179688 254.632812 190.414062 254.824219 190.628906 255.039062 C 190.84375 255.253906 191.035156 255.484375 191.203125 255.738281 C 191.371094 255.992188 191.511719 256.257812 191.628906 256.535156 C 191.746094 256.816406 191.832031 257.105469 191.890625 257.402344 C 191.949219 257.699219 191.980469 258 191.980469 258.304688 Z M 191.980469 258.304688 " fill-opacity="1" fill-rule="nonzero"/><path fill="#000000" d="M 251.988281 221.355469 C 249.449219 221.355469 247.371094 219.277344 247.371094 216.738281 L 247.371094 179.792969 C 247.371094 177.25 249.449219 175.171875 251.988281 175.171875 C 254.527344 175.171875 256.605469 177.25 256.605469 179.792969 L 256.605469 216.738281 C 256.605469 219.277344 254.527344 221.355469 251.988281 221.355469 Z M 251.988281 221.355469 " fill-opacity="1" fill-rule="nonzero"/><path fill="#000000" d="M 122.738281 221.355469 C 120.203125 221.355469 118.125 219.277344 118.125 216.738281 L 118.125 179.792969 C 118.125 177.25 120.203125 175.171875 122.738281 175.171875 C 125.277344 175.171875 127.355469 177.25 127.355469 179.792969 L 127.355469 216.738281 C 127.355469 219.277344 125.277344 221.355469 122.738281 221.355469 Z M 122.738281 221.355469 " fill-opacity="1" fill-rule="nonzero"/><path fill="#000000" d="M 187.363281 147.464844 C 184.824219 147.464844 182.75 145.386719 182.75 142.84375 L 182.75 138.226562 C 182.75 135.6875 184.824219 133.609375 187.363281 133.609375 C 189.902344 133.609375 191.980469 135.6875 191.980469 138.226562 L 191.980469 142.84375 C 191.980469 145.386719 189.902344 147.464844 187.363281 147.464844 Z M 187.363281 147.464844 " fill-opacity="1" fill-rule="nonzero"/><g clip-path="url(#19dbfec45d)"><path fill="#000000" d="M 297.011719 313.277344 C 258.339844 302.769531 229.394531 311.640625 210.394531 322.894531 C 236.371094 296.359375 276.003906 287.636719 288.699219 285.472656 Z M 251.289062 255.359375 L 262.199219 281.523438 C 241.640625 287.933594 214.773438 300.382812 196.585938 323.34375 C 208.089844 283.164062 239.5625 261.992188 251.289062 255.359375 Z M 123.625 255.359375 C 135.351562 261.992188 166.824219 283.089844 178.328125 323.417969 C 160.144531 300.457031 133.273438 288.007812 112.714844 281.597656 Z M 86.21875 285.472656 C 98.910156 287.636719 138.542969 296.359375 164.523438 322.894531 C 145.523438 311.640625 116.574219 302.769531 77.90625 313.277344 Z M 204.15625 361.804688 L 170.757812 361.804688 C 163.410156 352.265625 131.640625 321.628906 44.875 357.929688 L 52.371094 333.554688 C 138.914062 291.363281 181.667969 349.28125 183.449219 351.816406 C 183.523438 351.890625 183.597656 351.890625 183.671875 351.964844 C 183.746094 352.113281 183.820312 352.265625 183.96875 352.339844 C 184.042969 352.414062 184.042969 352.414062 184.042969 352.488281 C 184.191406 352.636719 184.339844 352.710938 184.5625 352.785156 C 184.710938 352.859375 184.859375 353.007812 185.007812 353.085938 C 185.15625 353.160156 185.304688 353.308594 185.527344 353.382812 C 185.601562 353.382812 185.675781 353.457031 185.675781 353.457031 C 185.972656 353.605469 186.34375 353.605469 186.714844 353.679688 C 186.9375 353.679688 187.085938 353.828125 187.308594 353.828125 C 187.382812 353.828125 187.457031 353.828125 187.53125 353.828125 C 187.605469 353.828125 187.679688 353.828125 187.753906 353.828125 C 187.976562 353.828125 188.125 353.753906 188.347656 353.679688 C 188.71875 353.605469 189.015625 353.605469 189.386719 353.457031 C 189.460938 353.457031 189.535156 353.382812 189.535156 353.382812 C 189.757812 353.308594 189.90625 353.160156 190.054688 353.085938 C 190.203125 353.007812 190.351562 352.933594 190.5 352.785156 C 190.648438 352.636719 190.871094 352.5625 191.019531 352.488281 C 191.09375 352.414062 191.09375 352.414062 191.09375 352.339844 C 191.242188 352.191406 191.316406 352.113281 191.390625 351.964844 C 191.464844 351.890625 191.539062 351.890625 191.613281 351.816406 C 193.394531 349.28125 236.148438 291.363281 322.691406 333.554688 L 330.1875 357.929688 C 243.347656 321.628906 211.507812 352.339844 204.15625 361.804688 Z M 204.15625 361.804688 " fill-opacity="1" fill-rule="nonzero"/></g></svg>