<svg xmlns="http://www.w3.org/2000/svg" xmlns:xlink="http://www.w3.org/1999/xlink" width="500" zoomAndPan="magnify" viewBox="0 0 375 374.999991" height="500" preserveAspectRatio="xMidYMid meet" version="1.0"><defs><g/><clipPath id="df88889a29"><path d="M 119 27.003906 L 256 27.003906 L 256 125 L 119 125 Z M 119 27.003906 " clip-rule="nonzero"/></clipPath><clipPath id="b003cb78c5"><path d="M 109.152344 193 L 145 193 L 145 240.394531 L 109.152344 240.394531 Z M 109.152344 193 " clip-rule="nonzero"/></clipPath><clipPath id="c28db83536"><path d="M 230 193 L 265.640625 193 L 265.640625 240.394531 L 230 240.394531 Z M 230 193 " clip-rule="nonzero"/></clipPath><clipPath id="ee1ac3ce08"><path d="M 77.667969 213.121094 L 297.382812 213.121094 L 297.382812 295 L 77.667969 295 Z M 77.667969 213.121094 " clip-rule="nonzero"/></clipPath></defs><path fill="#ffffff" d="M 233.765625 124.347656 L 233.765625 91.066406 C 233.765625 65.546875 213.015625 44.796875 187.496094 44.796875 C 161.976562 44.796875 141.222656 65.546875 141.222656 91.066406 L 141.222656 124.347656 C 137.023438 126.339844 134.105469 130.609375 134.105469 135.558594 C 134.105469 142.425781 139.695312 148.015625 146.5625 148.015625 L 148.519531 148.015625 C 150.335938 167.945312 167.101562 183.609375 187.496094 183.609375 C 207.886719 183.609375 224.652344 167.945312 226.46875 148.015625 L 228.425781 148.015625 C 235.292969 148.015625 240.882812 142.425781 240.882812 135.558594 C 240.882812 130.609375 237.964844 126.375 233.765625 124.347656 Z M 226.644531 123.101562 L 223.621094 123.101562 C 217.070312 121.320312 212.515625 115.449219 212.410156 108.652344 C 217.675781 110.144531 222.480469 112.101562 226.609375 114.453125 L 226.609375 123.066406 Z M 151.367188 123.101562 L 148.34375 123.101562 L 148.34375 114.488281 C 152.472656 112.140625 157.277344 110.179688 162.542969 108.6875 C 162.4375 115.484375 157.882812 121.320312 151.332031 123.136719 Z M 141.222656 135.558594 C 141.222656 132.605469 143.609375 130.21875 146.5625 130.21875 L 148.34375 130.21875 L 148.34375 140.898438 L 146.5625 140.898438 C 143.609375 140.898438 141.222656 138.511719 141.222656 135.558594 Z M 187.496094 176.488281 C 169.839844 176.488281 155.460938 162.109375 155.460938 144.457031 L 155.460938 129.1875 C 163.96875 125.878906 169.699219 117.726562 169.699219 108.4375 L 169.699219 106.976562 C 172.261719 106.480469 174.894531 106.089844 177.601562 105.839844 C 179.558594 105.660156 180.980469 103.917969 180.804688 101.960938 C 180.625 100 178.882812 98.613281 176.921875 98.757812 C 166.386719 99.824219 156.492188 102.527344 148.378906 106.445312 L 148.378906 100.25 C 151.796875 98.292969 155.710938 96.550781 160.125 95.160156 C 162.011719 94.554688 163.042969 92.5625 162.4375 90.675781 C 161.832031 88.789062 159.839844 87.757812 157.953125 88.363281 C 154.5 89.464844 151.296875 90.746094 148.34375 92.207031 L 148.34375 91.066406 C 148.34375 69.464844 165.890625 51.917969 187.496094 51.917969 C 209.097656 51.917969 226.644531 69.464844 226.644531 91.066406 L 226.644531 92.207031 C 223.691406 90.785156 220.523438 89.464844 217.035156 88.363281 C 215.148438 87.757812 213.15625 88.789062 212.550781 90.675781 C 211.945312 92.5625 212.976562 94.554688 214.863281 95.160156 C 219.277344 96.585938 223.191406 98.292969 226.609375 100.25 L 226.609375 106.445312 C 218.496094 102.492188 208.601562 99.789062 198.066406 98.757812 C 196.109375 98.578125 194.363281 100 194.1875 101.960938 C 194.007812 103.917969 195.429688 105.660156 197.390625 105.839844 C 200.09375 106.125 202.726562 106.515625 205.289062 106.976562 L 205.289062 108.4375 C 205.289062 117.761719 211.019531 125.878906 219.527344 129.1875 L 219.527344 144.457031 C 219.527344 162.109375 205.148438 176.488281 187.496094 176.488281 Z M 228.425781 140.898438 L 226.644531 140.898438 L 226.644531 130.21875 L 228.425781 130.21875 C 231.378906 130.21875 233.765625 132.605469 233.765625 135.558594 C 233.765625 138.511719 231.378906 140.898438 228.425781 140.898438 Z M 228.425781 140.898438 " fill-opacity="1" fill-rule="nonzero"/><path fill="#ffffff" d="M 187.496094 115.984375 C 186.816406 115.984375 186.105469 115.769531 185.5 115.378906 C 184.859375 114.949219 169.699219 104.59375 169.699219 91.066406 C 169.699219 77.542969 184.859375 67.1875 185.5 66.757812 C 186.710938 65.941406 188.277344 65.941406 189.488281 66.757812 C 190.128906 67.1875 205.289062 77.542969 205.289062 91.066406 C 205.289062 104.59375 190.128906 114.949219 189.488281 115.378906 C 188.882812 115.769531 188.207031 115.984375 187.496094 115.984375 Z M 187.496094 74.160156 C 183.933594 77.042969 176.816406 83.734375 176.816406 91.066406 C 176.816406 98.398438 183.933594 105.089844 187.496094 107.972656 C 191.054688 105.089844 198.171875 98.398438 198.171875 91.066406 C 198.171875 83.734375 191.054688 77.042969 187.496094 74.160156 Z M 187.496094 74.160156 " fill-opacity="1" fill-rule="nonzero"/><g clip-path="url(#df88889a29)"><path fill="#ffffff" d="M 235.332031 46.792969 C 222.515625 34.015625 205.539062 27.003906 187.496094 27.003906 C 169.449219 27.003906 152.472656 34.015625 139.660156 46.792969 C 126.882812 59.605469 119.871094 76.582031 119.871094 94.628906 C 119.871094 104.203125 121.828125 113.457031 125.707031 122.070312 C 126.523438 123.847656 128.625 124.667969 130.40625 123.847656 C 132.183594 123.03125 133.003906 120.929688 132.183594 119.148438 C 129.230469 112.53125 127.59375 105.484375 127.164062 98.1875 L 130.546875 98.1875 C 132.503906 98.1875 134.105469 96.585938 134.105469 94.628906 C 134.105469 92.667969 132.503906 91.066406 130.546875 91.066406 L 127.164062 91.066406 C 127.949219 77.4375 133.253906 64.695312 142.328125 54.480469 L 143.003906 55.15625 C 143.714844 55.867188 144.605469 56.1875 145.53125 56.1875 C 146.457031 56.1875 147.347656 55.832031 148.058594 55.15625 C 149.445312 53.769531 149.445312 51.523438 148.058594 50.136719 L 147.382812 49.460938 C 157.597656 40.386719 170.375 35.082031 184.007812 34.296875 C 184.113281 36.183594 185.644531 37.679688 187.53125 37.679688 C 189.417969 37.679688 190.945312 36.183594 191.054688 34.296875 C 204.683594 35.082031 217.464844 40.347656 227.679688 49.460938 L 227 50.136719 C 225.613281 51.523438 225.613281 53.769531 227 55.15625 C 227.714844 55.867188 228.601562 56.1875 229.527344 56.1875 C 230.453125 56.1875 231.34375 55.832031 232.054688 55.15625 L 232.730469 54.480469 C 241.808594 64.695312 247.074219 77.472656 247.894531 91.066406 L 244.511719 91.066406 C 242.554688 91.066406 240.953125 92.667969 240.953125 94.628906 C 240.953125 96.585938 242.554688 98.1875 244.511719 98.1875 L 247.894531 98.1875 C 247.46875 105.484375 245.828125 112.53125 242.875 119.148438 C 242.058594 120.929688 242.875 123.066406 244.65625 123.847656 C 245.117188 124.0625 245.617188 124.167969 246.113281 124.167969 C 247.46875 124.167969 248.785156 123.386719 249.355469 122.070312 C 253.234375 113.457031 255.191406 104.203125 255.191406 94.628906 C 255.191406 76.582031 248.179688 59.605469 235.402344 46.792969 Z M 235.332031 46.792969 " fill-opacity="1" fill-rule="nonzero"/></g><path fill="#ffffff" d="M 187.496094 204.964844 C 187.066406 204.964844 177.242188 204.855469 167.492188 197.0625 C 166.636719 196.386719 166.140625 195.351562 166.140625 194.285156 L 166.140625 189.515625 C 166.140625 187.558594 167.742188 185.957031 169.699219 185.957031 C 171.65625 185.957031 173.257812 187.558594 173.257812 189.515625 L 173.257812 192.503906 C 180.519531 197.703125 187.421875 197.84375 187.53125 197.84375 C 187.566406 197.84375 194.46875 197.703125 201.730469 192.503906 L 201.730469 189.515625 C 201.730469 187.558594 203.332031 185.957031 205.289062 185.957031 C 207.246094 185.957031 208.851562 187.558594 208.851562 189.515625 L 208.851562 194.285156 C 208.851562 195.351562 208.351562 196.386719 207.496094 197.0625 C 197.746094 204.855469 187.886719 204.964844 187.496094 204.964844 Z M 187.496094 204.964844 " fill-opacity="1" fill-rule="nonzero"/><path fill="#ffffff" d="M 187.496094 233.4375 C 187.316406 233.4375 187.136719 233.4375 186.960938 233.402344 C 169.910156 230.804688 163.933594 220.054688 162.792969 213.007812 C 152.042969 208.09375 151.902344 194.890625 151.902344 194.285156 C 151.902344 192.328125 153.503906 190.726562 155.460938 190.726562 L 169.699219 190.726562 C 171.65625 190.726562 173.257812 192.328125 173.257812 194.285156 C 173.257812 196.242188 171.65625 197.84375 169.699219 197.84375 L 159.484375 197.84375 C 160.230469 201.082031 162.152344 205.566406 167.171875 207.0625 C 168.667969 207.527344 169.699219 208.914062 169.699219 210.480469 C 169.699219 210.976562 170.125 223.398438 187.496094 226.28125 C 204.863281 223.398438 205.289062 210.976562 205.289062 210.445312 C 205.289062 208.914062 206.324219 207.527344 207.816406 207.0625 C 212.800781 205.566406 214.722656 201.082031 215.503906 197.84375 L 205.289062 197.84375 C 203.332031 197.84375 201.730469 196.242188 201.730469 194.285156 C 201.730469 192.328125 203.332031 190.726562 205.289062 190.726562 L 219.527344 190.726562 C 221.484375 190.726562 223.085938 192.328125 223.085938 194.285156 C 223.085938 194.890625 222.945312 208.09375 212.195312 213.007812 C 211.054688 220.054688 205.078125 230.804688 188.027344 233.402344 C 187.851562 233.402344 187.671875 233.4375 187.496094 233.4375 Z M 187.496094 233.4375 " fill-opacity="1" fill-rule="nonzero"/><g clip-path="url(#b003cb78c5)"><path fill="#ffffff" d="M 112.75 240.554688 C 110.792969 240.554688 109.191406 238.953125 109.191406 236.996094 C 109.191406 217.347656 121.648438 199.800781 140.15625 193.359375 C 142.007812 192.71875 144.035156 193.679688 144.675781 195.566406 C 145.316406 197.417969 144.355469 199.445312 142.46875 200.085938 C 126.808594 205.53125 116.273438 220.375 116.273438 237.03125 C 116.273438 238.988281 114.671875 240.589844 112.714844 240.589844 Z M 112.75 240.554688 " fill-opacity="1" fill-rule="nonzero"/></g><g clip-path="url(#c28db83536)"><path fill="#ffffff" d="M 262.238281 240.554688 C 260.28125 240.554688 258.679688 238.953125 258.679688 236.996094 C 258.679688 220.375 248.144531 205.53125 232.484375 200.050781 C 230.632812 199.410156 229.636719 197.382812 230.277344 195.53125 C 230.917969 193.679688 232.945312 192.683594 234.796875 193.324219 C 253.304688 199.765625 265.761719 217.3125 265.761719 236.960938 C 265.761719 238.917969 264.160156 240.519531 262.203125 240.519531 Z M 262.238281 240.554688 " fill-opacity="1" fill-rule="nonzero"/></g><path fill="#ffffff" d="M 191.054688 215.640625 C 191.054688 216.113281 190.964844 216.566406 190.78125 217.003906 C 190.601562 217.4375 190.34375 217.824219 190.011719 218.15625 C 189.675781 218.492188 189.292969 218.75 188.855469 218.929688 C 188.421875 219.109375 187.964844 219.199219 187.496094 219.199219 C 187.023438 219.199219 186.566406 219.109375 186.132812 218.929688 C 185.695312 218.75 185.3125 218.492188 184.976562 218.15625 C 184.644531 217.824219 184.386719 217.4375 184.207031 217.003906 C 184.027344 216.566406 183.933594 216.113281 183.933594 215.640625 C 183.933594 215.167969 184.027344 214.714844 184.207031 214.277344 C 184.386719 213.84375 184.644531 213.457031 184.976562 213.125 C 185.3125 212.789062 185.695312 212.53125 186.132812 212.351562 C 186.566406 212.171875 187.023438 212.082031 187.496094 212.082031 C 187.964844 212.082031 188.421875 212.171875 188.855469 212.351562 C 189.292969 212.53125 189.675781 212.789062 190.011719 213.125 C 190.34375 213.457031 190.601562 213.84375 190.78125 214.277344 C 190.964844 214.714844 191.054688 215.167969 191.054688 215.640625 Z M 191.054688 215.640625 " fill-opacity="1" fill-rule="nonzero"/><path fill="#ffffff" d="M 237.324219 187.167969 C 235.367188 187.167969 233.765625 185.566406 233.765625 183.609375 L 233.765625 155.132812 C 233.765625 153.175781 235.367188 151.574219 237.324219 151.574219 C 239.28125 151.574219 240.882812 153.175781 240.882812 155.132812 L 240.882812 183.609375 C 240.882812 185.566406 239.28125 187.167969 237.324219 187.167969 Z M 237.324219 187.167969 " fill-opacity="1" fill-rule="nonzero"/><path fill="#ffffff" d="M 137.664062 187.167969 C 135.707031 187.167969 134.105469 185.566406 134.105469 183.609375 L 134.105469 155.132812 C 134.105469 153.175781 135.707031 151.574219 137.664062 151.574219 C 139.621094 151.574219 141.222656 153.175781 141.222656 155.132812 L 141.222656 183.609375 C 141.222656 185.566406 139.621094 187.167969 137.664062 187.167969 Z M 137.664062 187.167969 " fill-opacity="1" fill-rule="nonzero"/><path fill="#ffffff" d="M 187.496094 130.21875 C 185.535156 130.21875 183.933594 128.617188 183.933594 126.660156 L 183.933594 123.101562 C 183.933594 121.144531 185.535156 119.542969 187.496094 119.542969 C 189.453125 119.542969 191.054688 121.144531 191.054688 123.101562 L 191.054688 126.660156 C 191.054688 128.617188 189.453125 130.21875 187.496094 130.21875 Z M 187.496094 130.21875 " fill-opacity="1" fill-rule="nonzero"/><g clip-path="url(#ee1ac3ce08)"><path fill="#ffffff" d="M 271.789062 257.632812 C 242.015625 249.574219 219.730469 256.375 205.101562 265.003906 C 225.101562 244.660156 255.617188 237.972656 265.390625 236.316406 Z M 236.585938 213.230469 L 244.988281 233.289062 C 229.160156 238.203125 208.472656 247.746094 194.472656 265.347656 C 203.328125 234.546875 227.558594 218.316406 236.585938 213.230469 Z M 138.296875 213.230469 C 147.328125 218.316406 171.554688 234.488281 180.414062 265.402344 C 166.414062 247.804688 145.726562 238.261719 129.898438 233.34375 Z M 109.496094 236.316406 C 119.269531 237.972656 149.785156 244.660156 169.785156 265.003906 C 155.15625 256.375 132.871094 249.574219 103.097656 257.632812 Z M 200.300781 294.832031 L 174.585938 294.832031 C 168.929688 287.519531 144.46875 264.03125 77.667969 291.863281 L 83.4375 273.175781 C 150.070312 240.832031 182.984375 285.234375 184.355469 287.175781 C 184.414062 287.234375 184.472656 287.234375 184.527344 287.289062 C 184.585938 287.40625 184.644531 287.519531 184.757812 287.578125 C 184.8125 287.632812 184.8125 287.632812 184.8125 287.691406 C 184.929688 287.804688 185.042969 287.863281 185.214844 287.917969 C 185.328125 287.976562 185.441406 288.089844 185.558594 288.148438 C 185.671875 288.203125 185.785156 288.320312 185.957031 288.375 C 186.015625 288.375 186.070312 288.433594 186.070312 288.433594 C 186.300781 288.546875 186.585938 288.546875 186.871094 288.605469 C 187.042969 288.605469 187.15625 288.71875 187.328125 288.71875 C 187.386719 288.71875 187.441406 288.71875 187.5 288.71875 C 187.558594 288.71875 187.613281 288.71875 187.671875 288.71875 C 187.84375 288.71875 187.957031 288.660156 188.128906 288.605469 C 188.414062 288.546875 188.644531 288.546875 188.929688 288.433594 C 188.984375 288.433594 189.042969 288.375 189.042969 288.375 C 189.214844 288.320312 189.328125 288.203125 189.441406 288.148438 C 189.558594 288.089844 189.671875 288.035156 189.785156 287.917969 C 189.898438 287.804688 190.070312 287.746094 190.1875 287.691406 C 190.242188 287.632812 190.242188 287.632812 190.242188 287.578125 C 190.355469 287.460938 190.414062 287.40625 190.472656 287.289062 C 190.527344 287.234375 190.585938 287.234375 190.644531 287.175781 C 192.015625 285.234375 224.929688 240.832031 291.5625 273.175781 L 297.332031 291.863281 C 230.472656 264.03125 205.957031 287.578125 200.300781 294.832031 Z M 200.300781 294.832031 " fill-opacity="1" fill-rule="nonzero"/></g><g fill="#ffffff" fill-opacity="1"><g transform="translate(37.570315, 329.214792)"><g><path d="M 6.933594 0 L 11.183594 0 C 10.917969 -0.886719 10.785156 -2.214844 10.785156 -3.722656 L 10.785156 -12.492188 L 14.617188 -12.492188 C 16.058594 -12.492188 16.898438 -12.359375 17.628906 -12.113281 L 16.941406 -15.503906 L 1.152344 -15.503906 L 0.464844 -12.113281 C 1.21875 -12.378906 2.039062 -12.492188 3.476562 -12.492188 L 7.332031 -12.492188 L 7.332031 -3.722656 C 7.332031 -2.214844 7.175781 -0.886719 6.933594 0 Z M 6.933594 0 "/></g></g></g><g fill="#ffffff" fill-opacity="1"><g transform="translate(55.633954, 329.214792)"><g><path d="M 1.617188 0 L 5.78125 0 C 5.492188 -0.796875 5.382812 -1.972656 5.382812 -3.234375 L 5.359375 -5.183594 C 5.359375 -7.265625 7.265625 -8.925781 9.390625 -8.925781 C 11.515625 -8.925781 12.867188 -7.707031 12.867188 -5.648438 L 12.867188 -3.234375 C 12.867188 -1.75 12.710938 -0.886719 12.46875 0 L 16.609375 0 C 16.34375 -0.886719 16.210938 -1.882812 16.210938 -3.367188 L 16.210938 -6.355469 C 16.210938 -9.457031 14.242188 -11.382812 10.695312 -11.382812 C 8.460938 -11.382812 6.378906 -10.320312 5.582031 -8.082031 L 5.382812 -8.082031 L 5.382812 -12.027344 C 5.382812 -13.53125 5.515625 -14.640625 5.78125 -15.503906 L 1.617188 -15.503906 C 1.882812 -14.640625 2.015625 -13.53125 2.015625 -12.027344 L 2.015625 -3.476562 C 2.015625 -1.972656 1.882812 -0.886719 1.617188 0 Z M 1.617188 0 "/></g></g></g><g fill="#ffffff" fill-opacity="1"><g transform="translate(73.764003, 329.214792)"><g><path d="M 8.96875 0.308594 C 11.230469 0.308594 13.929688 -0.15625 15.28125 -0.953125 L 15.214844 -3.34375 C 14.019531 -2.371094 11.871094 -1.839844 9.722656 -1.839844 C 6.867188 -1.839844 4.207031 -3.167969 4.007812 -5.425781 L 4.140625 -5.535156 C 5.734375 -4.761719 7.53125 -4.273438 9.765625 -4.273438 C 13.179688 -4.273438 15.503906 -5.226562 15.503906 -7.507812 C 15.503906 -9.632812 13.023438 -11.382812 8.683594 -11.382812 C 4.140625 -11.382812 0.953125 -8.992188 0.953125 -5.535156 C 0.953125 -2.015625 4.230469 0.308594 8.96875 0.308594 Z M 8.882812 -5.867188 C 7.132812 -5.867188 5.359375 -6.246094 4.054688 -6.820312 C 4.453125 -8.417969 6.578125 -9.347656 8.636719 -9.347656 C 11.097656 -9.347656 12.402344 -8.417969 12.402344 -7.484375 C 12.402344 -6.289062 10.832031 -5.867188 8.882812 -5.867188 Z M 8.882812 -5.867188 "/></g></g></g><g fill="#ffffff" fill-opacity="1"><g transform="translate(90.189513, 329.214792)"><g/></g></g><g fill="#ffffff" fill-opacity="1"><g transform="translate(96.40996, 329.214792)"><g><path d="M 9.613281 0.308594 C 14.660156 0.308594 17.871094 -1.484375 17.871094 -4.453125 C 17.871094 -10.785156 4.695312 -7.839844 4.695312 -11.207031 C 4.695312 -12.535156 6.910156 -12.890625 9.414062 -12.890625 C 12.027344 -12.890625 14.683594 -12.246094 16.324219 -11.296875 L 16.324219 -14.574219 C 14.574219 -15.304688 11.804688 -15.8125 9.28125 -15.8125 C 4.785156 -15.8125 1.128906 -14.242188 1.128906 -11.25 C 1.128906 -4.851562 14.285156 -7.664062 14.285156 -4.429688 C 14.285156 -3.054688 12.359375 -2.589844 9.546875 -2.589844 C 6.355469 -2.589844 3.300781 -3.300781 0.972656 -4.785156 L 0.820312 -1.261719 C 3.234375 -0.308594 6.933594 0.308594 9.613281 0.308594 Z M 9.613281 0.308594 "/></g></g></g><g fill="#ffffff" fill-opacity="1"><g transform="translate(115.137701, 329.214792)"><g><path d="M 6.402344 0.308594 C 8.992188 0.308594 10.875 -0.6875 11.5625 -1.992188 L 11.78125 -1.992188 L 11.78125 -1.726562 C 11.78125 -0.996094 11.648438 -0.375 11.449219 0 L 15.4375 0 C 15.148438 -0.820312 15.039062 -1.707031 15.039062 -3.386719 L 15.039062 -6.800781 C 15.039062 -10.230469 11.980469 -11.382812 7.996094 -11.382812 C 5.957031 -11.382812 3.855469 -11.03125 2.390625 -10.519531 L 2.390625 -8.328125 C 3.542969 -8.96875 5.46875 -9.433594 7.417969 -9.433594 C 10.097656 -9.433594 11.78125 -8.636719 11.78125 -6.46875 L 11.78125 -5.003906 L 11.539062 -5.003906 C 10.851562 -6.203125 8.96875 -7.21875 6.421875 -7.21875 C 2.769531 -7.21875 0.839844 -5.691406 0.839844 -3.476562 C 0.839844 -1.261719 2.789062 0.308594 6.402344 0.308594 Z M 7.796875 -1.683594 C 5.425781 -1.683594 4.074219 -2.414062 4.074219 -3.542969 C 4.074219 -4.671875 5.425781 -5.382812 7.796875 -5.382812 C 9.765625 -5.382812 11.671875 -4.652344 11.671875 -3.542969 C 11.671875 -2.304688 9.765625 -1.683594 7.796875 -1.683594 Z M 7.796875 -1.683594 "/></g></g></g><g fill="#ffffff" fill-opacity="1"><g transform="translate(131.939538, 329.214792)"><g><path d="M 1.617188 0 L 5.757812 0 C 5.46875 -0.664062 5.335938 -1.394531 5.335938 -2.457031 L 5.335938 -4.9375 C 5.335938 -7.152344 7.550781 -8.835938 9.613281 -8.835938 C 10.628906 -8.835938 11.804688 -8.460938 12.3125 -7.972656 L 12.3125 -10.984375 C 11.804688 -11.207031 10.875 -11.382812 10.097656 -11.382812 C 7.882812 -11.382812 6.113281 -10.03125 5.558594 -7.640625 L 5.359375 -7.640625 L 5.359375 -8.617188 C 5.359375 -9.523438 5.601562 -10.542969 5.914062 -11.074219 L 1.617188 -11.074219 C 1.859375 -10.1875 1.992188 -9.28125 1.992188 -7.773438 L 1.992188 -3.144531 C 1.992188 -1.660156 1.859375 -0.863281 1.617188 0 Z M 1.617188 0 "/></g></g></g><g fill="#ffffff" fill-opacity="1"><g transform="translate(144.823158, 329.214792)"><g><path d="M 6.402344 0.308594 C 8.992188 0.308594 10.875 -0.6875 11.5625 -1.992188 L 11.78125 -1.992188 L 11.78125 -1.726562 C 11.78125 -0.996094 11.648438 -0.375 11.449219 0 L 15.4375 0 C 15.148438 -0.820312 15.039062 -1.707031 15.039062 -3.386719 L 15.039062 -6.800781 C 15.039062 -10.230469 11.980469 -11.382812 7.996094 -11.382812 C 5.957031 -11.382812 3.855469 -11.03125 2.390625 -10.519531 L 2.390625 -8.328125 C 3.542969 -8.96875 5.46875 -9.433594 7.417969 -9.433594 C 10.097656 -9.433594 11.78125 -8.636719 11.78125 -6.46875 L 11.78125 -5.003906 L 11.539062 -5.003906 C 10.851562 -6.203125 8.96875 -7.21875 6.421875 -7.21875 C 2.769531 -7.21875 0.839844 -5.691406 0.839844 -3.476562 C 0.839844 -1.261719 2.789062 0.308594 6.402344 0.308594 Z M 7.796875 -1.683594 C 5.425781 -1.683594 4.074219 -2.414062 4.074219 -3.542969 C 4.074219 -4.671875 5.425781 -5.382812 7.796875 -5.382812 C 9.765625 -5.382812 11.671875 -4.652344 11.671875 -3.542969 C 11.671875 -2.304688 9.765625 -1.683594 7.796875 -1.683594 Z M 7.796875 -1.683594 "/></g></g></g><g fill="#ffffff" fill-opacity="1"><g transform="translate(161.624995, 329.214792)"><g><path d="M 7.53125 0.308594 C 11.714844 0.308594 13.976562 -1.21875 13.976562 -3.253906 C 13.976562 -7.773438 4.253906 -5.734375 4.253906 -7.949219 C 4.253906 -8.949219 5.847656 -9.234375 7.664062 -9.234375 C 9.613281 -9.234375 11.914062 -8.683594 12.976562 -8.128906 L 12.890625 -10.542969 C 11.496094 -11.007812 9.125 -11.382812 7.398438 -11.382812 C 3.609375 -11.382812 1.105469 -10.011719 1.105469 -8.015625 C 1.105469 -3.566406 10.808594 -5.714844 10.808594 -3.320312 C 10.808594 -2.324219 9.5 -1.925781 7.308594 -1.925781 C 5.160156 -1.925781 2.324219 -2.546875 0.820312 -3.476562 L 0.773438 -0.863281 C 2.257812 -0.265625 5.515625 0.308594 7.53125 0.308594 Z M 7.53125 0.308594 "/></g></g></g><g fill="#ffffff" fill-opacity="1"><g transform="translate(176.390241, 329.214792)"><g><path d="M 4.386719 0 L 8.484375 0 L 11.363281 -7.730469 L 11.582031 -7.730469 L 14.460938 0 L 18.558594 0 C 18.605469 -0.863281 18.9375 -2.039062 19.335938 -3.054688 L 21.285156 -8.105469 C 21.75 -9.347656 22.257812 -10.386719 22.722656 -11.074219 L 18.738281 -11.074219 C 18.714844 -10.5625 18.605469 -9.945312 18.25 -8.949219 L 16.390625 -4.140625 C 16.234375 -3.742188 16.101562 -3.320312 15.945312 -2.921875 L 15.746094 -2.921875 L 12.734375 -11.074219 L 10.210938 -11.074219 L 7.199219 -2.902344 L 7 -2.902344 C 6.84375 -3.320312 6.710938 -3.742188 6.535156 -4.1875 L 4.71875 -8.949219 C 4.339844 -9.945312 4.230469 -10.5625 4.1875 -11.074219 L 0.222656 -11.074219 C 0.6875 -10.386719 1.171875 -9.347656 1.640625 -8.105469 L 3.609375 -3.035156 C 4.007812 -2.039062 4.339844 -0.839844 4.386719 0 Z M 4.386719 0 "/></g></g></g><g fill="#ffffff" fill-opacity="1"><g transform="translate(199.323971, 329.214792)"><g><path d="M 8.371094 0.308594 C 12.84375 0.308594 15.792969 -2.082031 15.792969 -5.535156 C 15.792969 -8.992188 12.867188 -11.382812 8.371094 -11.382812 C 3.875 -11.382812 0.929688 -8.992188 0.929688 -5.535156 C 0.929688 -2.082031 3.875 0.308594 8.371094 0.308594 Z M 8.371094 -1.773438 C 5.933594 -1.773438 4.097656 -3.210938 4.097656 -5.535156 C 4.097656 -7.863281 5.933594 -9.324219 8.371094 -9.324219 C 10.808594 -9.324219 12.644531 -7.863281 12.644531 -5.535156 C 12.644531 -3.210938 10.808594 -1.773438 8.371094 -1.773438 Z M 8.371094 -1.773438 "/></g></g></g><g fill="#ffffff" fill-opacity="1"><g transform="translate(216.037265, 329.214792)"><g><path d="M 7.996094 0.308594 C 9.167969 0.308594 10.652344 0.0429688 11.472656 -0.398438 L 11.472656 -2.902344 C 10.917969 -2.4375 9.855469 -2.125 8.882812 -2.125 C 7.441406 -2.125 6.289062 -2.789062 6.289062 -4.519531 L 6.289062 -9.125 L 11.296875 -9.125 L 11.296875 -11.074219 L 6.289062 -11.074219 L 6.289062 -15.414062 L 3.035156 -14.707031 L 3.035156 -11.074219 L 0.332031 -11.074219 L 0.332031 -9.125 L 3.035156 -9.125 L 3.035156 -3.589844 C 3.035156 -0.707031 5.25 0.308594 7.996094 0.308594 Z M 7.996094 0.308594 "/></g></g></g><g fill="#ffffff" fill-opacity="1"><g transform="translate(227.858324, 329.214792)"><g><path d="M 3.542969 -12.710938 C 4.738281 -12.710938 5.535156 -13.355469 5.535156 -14.21875 C 5.535156 -15.082031 4.738281 -15.726562 3.542969 -15.726562 C 2.347656 -15.726562 1.550781 -15.082031 1.550781 -14.21875 C 1.550781 -13.355469 2.347656 -12.710938 3.542969 -12.710938 Z M 1.460938 0 L 5.625 0 C 5.359375 -0.886719 5.226562 -1.992188 5.226562 -3.476562 L 5.226562 -9.015625 C 5.226562 -9.921875 5.269531 -10.628906 5.359375 -11.074219 C 4.363281 -10.675781 2.769531 -10.675781 1.726562 -11.074219 C 1.816406 -10.628906 1.859375 -9.921875 1.859375 -9.015625 L 1.859375 -3.476562 C 1.859375 -1.992188 1.726562 -0.886719 1.460938 0 Z M 1.460938 0 "/></g></g></g><g fill="#ffffff" fill-opacity="1"><g transform="translate(234.919958, 329.214792)"><g/></g></g><g fill="#ffffff" fill-opacity="1"><g transform="translate(241.140416, 329.214792)"><g><path d="M 1.792969 0 L 6.046875 0 C 5.78125 -0.863281 5.648438 -2.171875 5.648438 -3.65625 L 5.667969 -8.371094 L 5.847656 -8.371094 C 6.402344 -5.335938 9.015625 -3.964844 12.558594 -3.964844 C 16.234375 -3.964844 18.957031 -6.136719 18.957031 -9.832031 C 18.957031 -13.488281 15.878906 -15.503906 11.714844 -15.503906 L 1.792969 -15.503906 C 2.039062 -14.640625 2.214844 -13.289062 2.214844 -11.78125 L 2.214844 -3.722656 C 2.214844 -2.214844 2.058594 -0.863281 1.792969 0 Z M 11.25 -6.777344 C 8.460938 -6.777344 5.691406 -8.347656 5.667969 -11.050781 L 5.667969 -12.558594 C 7.417969 -12.734375 9.191406 -12.757812 11.183594 -12.757812 C 13.929688 -12.757812 15.503906 -11.648438 15.503906 -9.832031 C 15.503906 -7.929688 13.511719 -6.777344 11.25 -6.777344 Z M 11.25 -6.777344 "/></g></g></g><g fill="#ffffff" fill-opacity="1"><g transform="translate(260.687221, 329.214792)"><g><path d="M 1.617188 0 L 5.757812 0 C 5.46875 -0.664062 5.335938 -1.394531 5.335938 -2.457031 L 5.335938 -4.9375 C 5.335938 -7.152344 7.550781 -8.835938 9.613281 -8.835938 C 10.628906 -8.835938 11.804688 -8.460938 12.3125 -7.972656 L 12.3125 -10.984375 C 11.804688 -11.207031 10.875 -11.382812 10.097656 -11.382812 C 7.882812 -11.382812 6.113281 -10.03125 5.558594 -7.640625 L 5.359375 -7.640625 L 5.359375 -8.617188 C 5.359375 -9.523438 5.601562 -10.542969 5.914062 -11.074219 L 1.617188 -11.074219 C 1.859375 -10.1875 1.992188 -9.28125 1.992188 -7.773438 L 1.992188 -3.144531 C 1.992188 -1.660156 1.859375 -0.863281 1.617188 0 Z M 1.617188 0 "/></g></g></g><g fill="#ffffff" fill-opacity="1"><g transform="translate(273.570842, 329.214792)"><g><path d="M 8.371094 0.308594 C 12.84375 0.308594 15.792969 -2.082031 15.792969 -5.535156 C 15.792969 -8.992188 12.867188 -11.382812 8.371094 -11.382812 C 3.875 -11.382812 0.929688 -8.992188 0.929688 -5.535156 C 0.929688 -2.082031 3.875 0.308594 8.371094 0.308594 Z M 8.371094 -1.773438 C 5.933594 -1.773438 4.097656 -3.210938 4.097656 -5.535156 C 4.097656 -7.863281 5.933594 -9.324219 8.371094 -9.324219 C 10.808594 -9.324219 12.644531 -7.863281 12.644531 -5.535156 C 12.644531 -3.210938 10.808594 -1.773438 8.371094 -1.773438 Z M 8.371094 -1.773438 "/></g></g></g><g fill="#ffffff" fill-opacity="1"><g transform="translate(290.284135, 329.214792)"><g><path d="M 4.054688 -12.710938 C 5.226562 -12.710938 6.023438 -13.355469 6.023438 -14.21875 C 6.023438 -15.082031 5.226562 -15.726562 4.054688 -15.726562 C 2.855469 -15.726562 2.058594 -15.082031 2.058594 -14.21875 C 2.058594 -13.355469 2.855469 -12.710938 4.054688 -12.710938 Z M 0.597656 4.984375 C 3.5 4.984375 5.714844 3.632812 5.714844 0.664062 L 5.714844 -9.125 C 5.714844 -10.054688 5.757812 -10.628906 5.847656 -11.074219 C 4.851562 -10.675781 3.253906 -10.675781 2.214844 -11.074219 C 2.324219 -10.628906 2.371094 -10.054688 2.371094 -9.125 L 2.371094 0.6875 C 2.371094 2.347656 1.308594 3.054688 -0.0664062 3.054688 C -0.773438 3.054688 -1.59375 2.878906 -2.304688 2.546875 L -2.28125 4.5625 C -1.417969 4.828125 -0.332031 4.984375 0.597656 4.984375 Z M 0.597656 4.984375 "/></g></g></g><g fill="#ffffff" fill-opacity="1"><g transform="translate(297.633553, 329.214792)"><g><path d="M 8.96875 0.308594 C 11.230469 0.308594 13.929688 -0.15625 15.28125 -0.953125 L 15.214844 -3.34375 C 14.019531 -2.371094 11.871094 -1.839844 9.722656 -1.839844 C 6.867188 -1.839844 4.207031 -3.167969 4.007812 -5.425781 L 4.140625 -5.535156 C 5.734375 -4.761719 7.53125 -4.273438 9.765625 -4.273438 C 13.179688 -4.273438 15.503906 -5.226562 15.503906 -7.507812 C 15.503906 -9.632812 13.023438 -11.382812 8.683594 -11.382812 C 4.140625 -11.382812 0.953125 -8.992188 0.953125 -5.535156 C 0.953125 -2.015625 4.230469 0.308594 8.96875 0.308594 Z M 8.882812 -5.867188 C 7.132812 -5.867188 5.359375 -6.246094 4.054688 -6.820312 C 4.453125 -8.417969 6.578125 -9.347656 8.636719 -9.347656 C 11.097656 -9.347656 12.402344 -8.417969 12.402344 -7.484375 C 12.402344 -6.289062 10.832031 -5.867188 8.882812 -5.867188 Z M 8.882812 -5.867188 "/></g></g></g><g fill="#ffffff" fill-opacity="1"><g transform="translate(314.059051, 329.214792)"><g><path d="M 8.882812 0.308594 C 10.675781 0.308594 13.023438 -0.0664062 14.261719 -0.621094 L 14.21875 -3.253906 C 13.023438 -2.4375 11.164062 -1.992188 9.5 -1.992188 C 6.445312 -1.992188 4.164062 -3.300781 4.164062 -5.558594 C 4.164062 -7.816406 6.378906 -9.101562 9.347656 -9.101562 C 10.898438 -9.101562 12.625 -8.636719 13.621094 -8.015625 L 13.820312 -10.496094 C 12.757812 -11.007812 10.519531 -11.40625 8.902344 -11.40625 C 4.054688 -11.40625 0.953125 -8.992188 0.953125 -5.558594 C 0.953125 -2.105469 4.03125 0.308594 8.882812 0.308594 Z M 8.882812 0.308594 "/></g></g></g><g fill="#ffffff" fill-opacity="1"><g transform="translate(329.156348, 329.214792)"><g><path d="M 7.996094 0.308594 C 9.167969 0.308594 10.652344 0.0429688 11.472656 -0.398438 L 11.472656 -2.902344 C 10.917969 -2.4375 9.855469 -2.125 8.882812 -2.125 C 7.441406 -2.125 6.289062 -2.789062 6.289062 -4.519531 L 6.289062 -9.125 L 11.296875 -9.125 L 11.296875 -11.074219 L 6.289062 -11.074219 L 6.289062 -15.414062 L 3.035156 -14.707031 L 3.035156 -11.074219 L 0.332031 -11.074219 L 0.332031 -9.125 L 3.035156 -9.125 L 3.035156 -3.589844 C 3.035156 -0.707031 5.25 0.308594 7.996094 0.308594 Z M 7.996094 0.308594 "/></g></g></g></svg>