<svg xmlns="http://www.w3.org/2000/svg" xmlns:xlink="http://www.w3.org/1999/xlink" width="500" zoomAndPan="magnify" viewBox="0 0 375 374.999991" height="500" preserveAspectRatio="xMidYMid meet" version="1.0"><defs><clipPath id="f44f884c7a"><path d="M 99 13.53125 L 276 13.53125 L 276 140 L 99 140 Z M 99 13.53125 " clip-rule="nonzero"/></clipPath><clipPath id="725e163e37"><path d="M 85.761719 229 L 133 229 L 133 290.632812 L 85.761719 290.632812 Z M 85.761719 229 " clip-rule="nonzero"/></clipPath><clipPath id="2c78b3c412"><path d="M 242 229 L 288.96875 229 L 288.96875 290.632812 L 242 290.632812 Z M 242 229 " clip-rule="nonzero"/></clipPath><clipPath id="29c85f8538"><path d="M 44.875 255.214844 L 330.1875 255.214844 L 330.1875 361.949219 L 44.875 361.949219 Z M 44.875 255.214844 " clip-rule="nonzero"/></clipPath></defs><path fill="#ffffff" d="M 247.578125 139.9375 L 247.578125 96.722656 C 247.578125 63.585938 220.632812 36.640625 187.492188 36.640625 C 154.355469 36.640625 127.410156 63.585938 127.410156 96.722656 L 127.410156 139.9375 C 121.953125 142.527344 118.164062 148.074219 118.164062 154.496094 C 118.164062 163.417969 125.421875 170.671875 134.339844 170.671875 L 136.882812 170.671875 C 139.242188 196.554688 161.007812 216.890625 187.492188 216.890625 C 213.976562 216.890625 235.746094 196.554688 238.101562 170.671875 L 240.644531 170.671875 C 249.5625 170.671875 256.820312 163.417969 256.820312 154.496094 C 256.820312 148.074219 253.03125 142.574219 247.578125 139.9375 Z M 238.332031 138.320312 L 234.40625 138.320312 C 225.898438 136.007812 219.984375 128.382812 219.84375 119.554688 C 226.6875 121.496094 232.925781 124.039062 238.285156 127.089844 L 238.285156 138.273438 Z M 140.582031 138.320312 L 136.652344 138.320312 L 136.652344 127.136719 C 142.011719 124.085938 148.253906 121.542969 155.09375 119.601562 C 154.953125 128.429688 149.039062 136.007812 140.535156 138.367188 Z M 127.410156 154.496094 C 127.410156 150.660156 130.503906 147.5625 134.339844 147.5625 L 136.652344 147.5625 L 136.652344 161.429688 L 134.339844 161.429688 C 130.503906 161.429688 127.410156 158.332031 127.410156 154.496094 Z M 187.492188 207.648438 C 164.566406 207.648438 145.894531 188.976562 145.894531 166.050781 L 145.894531 146.222656 C 156.941406 141.925781 164.382812 131.339844 164.382812 119.277344 L 164.382812 117.382812 C 167.710938 116.734375 171.132812 116.226562 174.644531 115.902344 C 177.1875 115.671875 179.035156 113.410156 178.804688 110.867188 C 178.574219 108.324219 176.308594 106.523438 173.765625 106.707031 C 160.085938 108.09375 147.234375 111.605469 136.699219 116.691406 L 136.699219 108.648438 C 141.136719 106.105469 146.21875 103.839844 151.949219 102.039062 C 154.398438 101.253906 155.742188 98.664062 154.953125 96.214844 C 154.167969 93.765625 151.582031 92.425781 149.132812 93.210938 C 144.648438 94.644531 140.488281 96.308594 136.652344 98.203125 L 136.652344 96.722656 C 136.652344 68.667969 159.4375 45.882812 187.492188 45.882812 C 215.546875 45.882812 238.332031 68.667969 238.332031 96.722656 L 238.332031 98.203125 C 234.496094 96.355469 230.382812 94.644531 225.855469 93.210938 C 223.40625 92.425781 220.816406 93.765625 220.03125 96.214844 C 219.246094 98.664062 220.585938 101.253906 223.035156 102.039062 C 228.765625 103.886719 233.851562 106.105469 238.285156 108.648438 L 238.285156 116.691406 C 227.75 111.558594 214.898438 108.046875 201.21875 106.707031 C 198.675781 106.476562 196.414062 108.324219 196.183594 110.867188 C 195.949219 113.410156 197.800781 115.671875 200.339844 115.902344 C 203.855469 116.273438 207.273438 116.78125 210.601562 117.382812 L 210.601562 119.277344 C 210.601562 131.386719 218.042969 141.925781 229.089844 146.222656 L 229.089844 166.050781 C 229.089844 188.976562 210.417969 207.648438 187.492188 207.648438 Z M 240.644531 161.429688 L 238.332031 161.429688 L 238.332031 147.5625 L 240.644531 147.5625 C 244.480469 147.5625 247.578125 150.660156 247.578125 154.496094 C 247.578125 158.332031 244.480469 161.429688 240.644531 161.429688 Z M 240.644531 161.429688 " fill-opacity="1" fill-rule="nonzero"/><path fill="#ffffff" d="M 187.492188 129.078125 C 186.613281 129.078125 185.691406 128.800781 184.90625 128.289062 C 184.074219 127.734375 164.382812 114.285156 164.382812 96.722656 C 164.382812 79.160156 184.074219 65.710938 184.90625 65.15625 C 186.476562 64.09375 188.507812 64.09375 190.082031 65.15625 C 190.914062 65.710938 210.601562 79.160156 210.601562 96.722656 C 210.601562 114.285156 190.914062 127.734375 190.082031 128.289062 C 189.296875 128.800781 188.417969 129.078125 187.492188 129.078125 Z M 187.492188 74.769531 C 182.871094 78.511719 173.628906 87.203125 173.628906 96.722656 C 173.628906 106.246094 182.871094 114.933594 187.492188 118.675781 C 192.113281 114.933594 201.359375 106.246094 201.359375 96.722656 C 201.359375 87.203125 192.113281 78.511719 187.492188 74.769531 Z M 187.492188 74.769531 " fill-opacity="1" fill-rule="nonzero"/><g clip-path="url(#f44f884c7a)"><path fill="#ffffff" d="M 249.609375 39.226562 C 232.972656 22.636719 210.925781 13.53125 187.492188 13.53125 C 164.058594 13.53125 142.011719 22.636719 125.375 39.226562 C 108.78125 55.867188 99.675781 77.914062 99.675781 101.34375 C 99.675781 113.777344 102.21875 125.796875 107.257812 136.980469 C 108.320312 139.289062 111.046875 140.355469 113.359375 139.289062 C 115.667969 138.226562 116.730469 135.5 115.667969 133.191406 C 111.832031 124.59375 109.707031 115.441406 109.152344 105.96875 L 113.542969 105.96875 C 116.085938 105.96875 118.164062 103.886719 118.164062 101.34375 C 118.164062 98.804688 116.085938 96.722656 113.542969 96.722656 L 109.152344 96.722656 C 110.167969 79.023438 117.054688 62.476562 128.839844 49.210938 L 129.71875 50.089844 C 130.644531 51.011719 131.800781 51.429688 133 51.429688 C 134.203125 51.429688 135.359375 50.96875 136.28125 50.089844 C 138.085938 48.285156 138.085938 45.375 136.28125 43.570312 L 135.40625 42.695312 C 148.667969 30.910156 165.261719 24.023438 182.964844 23.003906 C 183.101562 25.453125 185.089844 27.394531 187.539062 27.394531 C 189.988281 27.394531 191.976562 25.453125 192.113281 23.003906 C 209.816406 24.023438 226.410156 30.863281 239.671875 42.695312 L 238.796875 43.570312 C 236.992188 45.375 236.992188 48.285156 238.796875 50.089844 C 239.71875 51.011719 240.875 51.429688 242.078125 51.429688 C 243.277344 51.429688 244.433594 50.96875 245.359375 50.089844 L 246.238281 49.210938 C 258.023438 62.476562 264.863281 79.066406 265.925781 96.722656 L 261.535156 96.722656 C 258.992188 96.722656 256.914062 98.804688 256.914062 101.34375 C 256.914062 103.886719 258.992188 105.96875 261.535156 105.96875 L 265.925781 105.96875 C 265.371094 115.441406 263.246094 124.59375 259.410156 133.191406 C 258.347656 135.5 259.410156 138.273438 261.71875 139.289062 C 262.320312 139.566406 262.96875 139.707031 263.613281 139.707031 C 265.371094 139.707031 267.082031 138.691406 267.820312 136.980469 C 272.859375 125.796875 275.398438 113.777344 275.398438 101.34375 C 275.398438 77.914062 266.296875 55.867188 249.703125 39.226562 Z M 249.609375 39.226562 " fill-opacity="1" fill-rule="nonzero"/></g><path fill="#ffffff" d="M 187.492188 244.621094 C 186.9375 244.621094 174.183594 244.484375 161.519531 234.363281 C 160.410156 233.484375 159.761719 232.144531 159.761719 230.757812 L 159.761719 224.5625 C 159.761719 222.023438 161.839844 219.941406 164.382812 219.941406 C 166.925781 219.941406 169.003906 222.023438 169.003906 224.5625 L 169.003906 228.445312 C 178.433594 235.195312 187.398438 235.378906 187.539062 235.378906 C 187.585938 235.378906 196.550781 235.195312 205.980469 228.445312 L 205.980469 224.5625 C 205.980469 222.023438 208.058594 219.941406 210.601562 219.941406 C 213.144531 219.941406 215.222656 222.023438 215.222656 224.5625 L 215.222656 230.757812 C 215.222656 232.144531 214.578125 233.484375 213.46875 234.363281 C 200.804688 244.484375 188 244.621094 187.492188 244.621094 Z M 187.492188 244.621094 " fill-opacity="1" fill-rule="nonzero"/><path fill="#ffffff" d="M 187.492188 281.597656 C 187.261719 281.597656 187.03125 281.597656 186.800781 281.550781 C 164.660156 278.175781 156.894531 264.21875 155.417969 255.066406 C 141.460938 248.691406 141.273438 231.542969 141.273438 230.757812 C 141.273438 228.214844 143.355469 226.136719 145.894531 226.136719 L 164.382812 226.136719 C 166.925781 226.136719 169.003906 228.214844 169.003906 230.757812 C 169.003906 233.300781 166.925781 235.378906 164.382812 235.378906 L 151.117188 235.378906 C 152.089844 239.585938 154.585938 245.410156 161.101562 247.351562 C 163.042969 247.949219 164.382812 249.753906 164.382812 251.785156 C 164.382812 252.433594 164.9375 268.5625 187.492188 272.308594 C 210.046875 268.5625 210.601562 252.433594 210.601562 251.742188 C 210.601562 249.753906 211.941406 247.949219 213.882812 247.351562 C 220.355469 245.410156 222.851562 239.585938 223.867188 235.378906 L 210.601562 235.378906 C 208.058594 235.378906 205.980469 233.300781 205.980469 230.757812 C 205.980469 228.214844 208.058594 226.136719 210.601562 226.136719 L 229.089844 226.136719 C 231.632812 226.136719 233.710938 228.214844 233.710938 230.757812 C 233.710938 231.542969 233.527344 248.691406 219.566406 255.066406 C 218.089844 264.21875 210.324219 278.175781 188.1875 281.550781 C 187.953125 281.550781 187.722656 281.597656 187.492188 281.597656 Z M 187.492188 281.597656 " fill-opacity="1" fill-rule="nonzero"/><g clip-path="url(#725e163e37)"><path fill="#ffffff" d="M 90.433594 290.839844 C 87.890625 290.839844 85.8125 288.761719 85.8125 286.21875 C 85.8125 260.707031 101.988281 237.921875 126.023438 229.554688 C 128.425781 228.722656 131.058594 229.972656 131.890625 232.421875 C 132.722656 234.824219 131.476562 237.457031 129.027344 238.289062 C 108.691406 245.363281 95.007812 264.636719 95.007812 286.265625 C 95.007812 288.808594 92.929688 290.886719 90.386719 290.886719 Z M 90.433594 290.839844 " fill-opacity="1" fill-rule="nonzero"/></g><g clip-path="url(#2c78b3c412)"><path fill="#ffffff" d="M 284.550781 290.839844 C 282.007812 290.839844 279.929688 288.761719 279.929688 286.21875 C 279.929688 264.636719 266.25 245.363281 245.914062 238.246094 C 243.507812 237.414062 242.214844 234.777344 243.046875 232.375 C 243.878906 229.972656 246.515625 228.675781 248.917969 229.507812 C 272.949219 237.875 289.128906 260.660156 289.128906 286.171875 C 289.128906 288.714844 287.046875 290.796875 284.503906 290.796875 Z M 284.550781 290.839844 " fill-opacity="1" fill-rule="nonzero"/></g><path fill="#ffffff" d="M 192.113281 258.488281 C 192.113281 258.792969 192.085938 259.09375 192.027344 259.390625 C 191.964844 259.6875 191.878906 259.976562 191.761719 260.257812 C 191.648438 260.539062 191.503906 260.804688 191.335938 261.054688 C 191.167969 261.308594 190.976562 261.542969 190.761719 261.757812 C 190.546875 261.972656 190.3125 262.164062 190.058594 262.332031 C 189.808594 262.5 189.542969 262.640625 189.261719 262.757812 C 188.980469 262.875 188.691406 262.960938 188.394531 263.019531 C 188.097656 263.082031 187.796875 263.109375 187.492188 263.109375 C 187.1875 263.109375 186.886719 263.082031 186.589844 263.019531 C 186.292969 262.960938 186.003906 262.875 185.722656 262.757812 C 185.445312 262.640625 185.175781 262.5 184.925781 262.332031 C 184.671875 262.164062 184.4375 261.972656 184.222656 261.757812 C 184.011719 261.542969 183.816406 261.308594 183.648438 261.054688 C 183.480469 260.804688 183.339844 260.539062 183.222656 260.257812 C 183.105469 259.976562 183.019531 259.6875 182.960938 259.390625 C 182.902344 259.09375 182.871094 258.792969 182.871094 258.488281 C 182.871094 258.183594 182.902344 257.882812 182.960938 257.585938 C 183.019531 257.289062 183.105469 257 183.222656 256.71875 C 183.339844 256.4375 183.480469 256.171875 183.648438 255.921875 C 183.816406 255.667969 184.011719 255.433594 184.222656 255.21875 C 184.4375 255.003906 184.671875 254.8125 184.925781 254.644531 C 185.175781 254.476562 185.445312 254.335938 185.722656 254.21875 C 186.003906 254.101562 186.292969 254.015625 186.589844 253.957031 C 186.886719 253.894531 187.1875 253.867188 187.492188 253.867188 C 187.796875 253.867188 188.097656 253.894531 188.394531 253.957031 C 188.691406 254.015625 188.980469 254.101562 189.261719 254.21875 C 189.542969 254.335938 189.808594 254.476562 190.058594 254.644531 C 190.3125 254.8125 190.546875 255.003906 190.761719 255.21875 C 190.976562 255.433594 191.167969 255.667969 191.335938 255.921875 C 191.503906 256.171875 191.648438 256.4375 191.761719 256.71875 C 191.878906 257 191.964844 257.289062 192.027344 257.585938 C 192.085938 257.882812 192.113281 258.183594 192.113281 258.488281 Z M 192.113281 258.488281 " fill-opacity="1" fill-rule="nonzero"/><path fill="#ffffff" d="M 252.199219 221.511719 C 249.65625 221.511719 247.578125 219.433594 247.578125 216.890625 L 247.578125 179.917969 C 247.578125 177.375 249.65625 175.296875 252.199219 175.296875 C 254.742188 175.296875 256.820312 177.375 256.820312 179.917969 L 256.820312 216.890625 C 256.820312 219.433594 254.742188 221.511719 252.199219 221.511719 Z M 252.199219 221.511719 " fill-opacity="1" fill-rule="nonzero"/><path fill="#ffffff" d="M 122.785156 221.511719 C 120.246094 221.511719 118.164062 219.433594 118.164062 216.890625 L 118.164062 179.917969 C 118.164062 177.375 120.246094 175.296875 122.785156 175.296875 C 125.328125 175.296875 127.410156 177.375 127.410156 179.917969 L 127.410156 216.890625 C 127.410156 219.433594 125.328125 221.511719 122.785156 221.511719 Z M 122.785156 221.511719 " fill-opacity="1" fill-rule="nonzero"/><path fill="#ffffff" d="M 187.492188 147.5625 C 184.949219 147.5625 182.871094 145.484375 182.871094 142.941406 L 182.871094 138.320312 C 182.871094 135.777344 184.949219 133.699219 187.492188 133.699219 C 190.035156 133.699219 192.113281 135.777344 192.113281 138.320312 L 192.113281 142.941406 C 192.113281 145.484375 190.035156 147.5625 187.492188 147.5625 Z M 187.492188 147.5625 " fill-opacity="1" fill-rule="nonzero"/><g clip-path="url(#29c85f8538)"><path fill="#ffffff" d="M 296.953125 313.015625 C 258.292969 302.554688 229.351562 311.382812 210.355469 322.589844 C 236.328125 296.171875 275.953125 287.488281 288.644531 285.339844 Z M 251.242188 255.359375 L 262.152344 281.40625 C 241.597656 287.785156 214.734375 300.179688 196.554688 323.035156 C 208.054688 283.039062 239.519531 261.964844 251.242188 255.359375 Z M 123.609375 255.359375 C 135.332031 261.964844 166.796875 282.964844 178.296875 323.109375 C 160.117188 300.253906 133.253906 287.859375 112.699219 281.480469 Z M 86.207031 285.339844 C 98.898438 287.488281 138.523438 296.171875 164.496094 322.589844 C 145.5 311.382812 116.558594 302.554688 77.898438 313.015625 Z M 204.121094 361.324219 L 170.730469 361.324219 C 163.382812 351.828125 131.621094 321.328125 44.875 357.464844 L 52.371094 333.199219 C 138.894531 291.199219 181.636719 348.859375 183.417969 351.382812 C 183.492188 351.457031 183.566406 351.457031 183.640625 351.53125 C 183.714844 351.679688 183.789062 351.828125 183.9375 351.902344 C 184.011719 351.976562 184.011719 351.976562 184.011719 352.050781 C 184.160156 352.199219 184.308594 352.273438 184.53125 352.347656 C 184.679688 352.421875 184.828125 352.570312 184.976562 352.644531 C 185.125 352.71875 185.273438 352.867188 185.496094 352.941406 C 185.570312 352.941406 185.644531 353.015625 185.644531 353.015625 C 185.941406 353.164062 186.3125 353.164062 186.683594 353.238281 C 186.90625 353.238281 187.054688 353.386719 187.277344 353.386719 C 187.351562 353.386719 187.425781 353.386719 187.5 353.386719 C 187.574219 353.386719 187.648438 353.386719 187.722656 353.386719 C 187.945312 353.386719 188.09375 353.3125 188.316406 353.238281 C 188.6875 353.164062 188.984375 353.164062 189.355469 353.015625 C 189.429688 353.015625 189.503906 352.941406 189.503906 352.941406 C 189.726562 352.867188 189.875 352.71875 190.023438 352.644531 C 190.171875 352.570312 190.320312 352.496094 190.46875 352.347656 C 190.617188 352.199219 190.839844 352.125 190.988281 352.050781 C 191.0625 351.976562 191.0625 351.976562 191.0625 351.902344 C 191.210938 351.753906 191.285156 351.679688 191.359375 351.53125 C 191.433594 351.457031 191.507812 351.457031 191.582031 351.382812 C 193.363281 348.859375 236.105469 291.199219 322.628906 333.199219 L 330.125 357.464844 C 243.304688 321.328125 211.46875 351.902344 204.121094 361.324219 Z M 204.121094 361.324219 " fill-opacity="1" fill-rule="nonzero"/></g></svg>