<svg xmlns="http://www.w3.org/2000/svg" xmlns:xlink="http://www.w3.org/1999/xlink" width="500" zoomAndPan="magnify" viewBox="0 0 375 374.999991" height="500" preserveAspectRatio="xMidYMid meet" version="1.0"><defs><g/><clipPath id="6bcd963cbb"><path d="M 119 27.003906 L 256 27.003906 L 256 125 L 119 125 Z M 119 27.003906 " clip-rule="nonzero"/></clipPath><clipPath id="a860721ab3"><path d="M 109.152344 193 L 145 193 L 145 240.394531 L 109.152344 240.394531 Z M 109.152344 193 " clip-rule="nonzero"/></clipPath><clipPath id="f160589fa6"><path d="M 229 193 L 265.640625 193 L 265.640625 240.394531 L 229 240.394531 Z M 229 193 " clip-rule="nonzero"/></clipPath><clipPath id="ac7ed25c36"><path d="M 77.667969 213.121094 L 297.382812 213.121094 L 297.382812 295.316406 L 77.667969 295.316406 Z M 77.667969 213.121094 " clip-rule="nonzero"/></clipPath></defs><path fill="#000000" d="M 233.605469 124.273438 L 233.605469 91.019531 C 233.605469 65.519531 212.882812 44.785156 187.394531 44.785156 C 161.90625 44.785156 141.183594 65.519531 141.183594 91.019531 L 141.183594 124.273438 C 136.988281 126.265625 134.074219 130.53125 134.074219 135.476562 C 134.074219 142.339844 139.65625 147.925781 146.515625 147.925781 L 148.472656 147.925781 C 150.285156 167.839844 167.027344 183.488281 187.394531 183.488281 C 207.765625 183.488281 224.507812 167.839844 226.320312 147.925781 L 228.273438 147.925781 C 235.136719 147.925781 240.714844 142.339844 240.714844 135.476562 C 240.714844 130.53125 237.800781 126.300781 233.605469 124.273438 Z M 226.496094 123.027344 L 223.476562 123.027344 C 216.933594 121.25 212.386719 115.382812 212.277344 108.589844 C 217.539062 110.082031 222.339844 112.039062 226.460938 114.386719 L 226.460938 122.992188 Z M 151.316406 123.027344 L 148.292969 123.027344 L 148.292969 114.421875 C 152.417969 112.074219 157.214844 110.117188 162.476562 108.625 C 162.371094 115.417969 157.820312 121.25 151.28125 123.0625 Z M 141.183594 135.476562 C 141.183594 132.523438 143.566406 130.140625 146.515625 130.140625 L 148.292969 130.140625 L 148.292969 140.8125 L 146.515625 140.8125 C 143.566406 140.8125 141.183594 138.429688 141.183594 135.476562 Z M 187.394531 176.375 C 169.765625 176.375 155.402344 162.007812 155.402344 144.367188 L 155.402344 129.109375 C 163.898438 125.804688 169.621094 117.660156 169.621094 108.375 L 169.621094 106.917969 C 172.179688 106.417969 174.8125 106.027344 177.511719 105.78125 C 179.46875 105.601562 180.890625 103.859375 180.710938 101.902344 C 180.535156 99.945312 178.792969 98.558594 176.839844 98.703125 C 166.316406 99.769531 156.433594 102.472656 148.328125 106.382812 L 148.328125 100.195312 C 151.742188 98.238281 155.652344 96.496094 160.058594 95.109375 C 161.945312 94.503906 162.972656 92.515625 162.371094 90.628906 C 161.765625 88.742188 159.773438 87.710938 157.890625 88.316406 C 154.441406 89.417969 151.242188 90.699219 148.292969 92.15625 L 148.292969 91.019531 C 148.292969 69.433594 165.816406 51.898438 187.394531 51.898438 C 208.972656 51.898438 226.496094 69.433594 226.496094 91.019531 L 226.496094 92.15625 C 223.546875 90.734375 220.382812 89.417969 216.898438 88.316406 C 215.015625 87.710938 213.023438 88.742188 212.421875 90.628906 C 211.816406 92.515625 212.847656 94.503906 214.730469 95.109375 C 219.140625 96.53125 223.050781 98.238281 226.460938 100.195312 L 226.460938 106.382812 C 218.355469 102.4375 208.476562 99.734375 197.953125 98.703125 C 195.996094 98.523438 194.257812 99.945312 194.078125 101.902344 C 193.902344 103.859375 195.324219 105.601562 197.277344 105.78125 C 199.980469 106.0625 202.609375 106.457031 205.167969 106.917969 L 205.167969 108.375 C 205.167969 117.695312 210.890625 125.804688 219.386719 129.109375 L 219.386719 144.367188 C 219.386719 162.007812 205.027344 176.375 187.394531 176.375 Z M 228.273438 140.8125 L 226.496094 140.8125 L 226.496094 130.140625 L 228.273438 130.140625 C 231.226562 130.140625 233.605469 132.523438 233.605469 135.476562 C 233.605469 138.429688 231.226562 140.8125 228.273438 140.8125 Z M 228.273438 140.8125 " fill-opacity="1" fill-rule="nonzero"/><path fill="#000000" d="M 187.394531 115.914062 C 186.71875 115.914062 186.007812 115.703125 185.40625 115.3125 C 184.765625 114.882812 169.621094 104.535156 169.621094 91.019531 C 169.621094 77.503906 184.765625 67.15625 185.40625 66.730469 C 186.613281 65.910156 188.175781 65.910156 189.386719 66.730469 C 190.027344 67.15625 205.167969 77.503906 205.167969 91.019531 C 205.167969 104.535156 190.027344 114.882812 189.386719 115.3125 C 188.78125 115.703125 188.105469 115.914062 187.394531 115.914062 Z M 187.394531 74.125 C 183.839844 77.007812 176.730469 83.695312 176.730469 91.019531 C 176.730469 98.347656 183.839844 105.03125 187.394531 107.914062 C 190.949219 105.03125 198.058594 98.347656 198.058594 91.019531 C 198.058594 83.695312 190.949219 77.007812 187.394531 74.125 Z M 187.394531 74.125 " fill-opacity="1" fill-rule="nonzero"/><g clip-path="url(#6bcd963cbb)"><path fill="#000000" d="M 235.171875 46.777344 C 222.375 34.007812 205.417969 27.003906 187.394531 27.003906 C 169.375 27.003906 152.417969 34.007812 139.621094 46.777344 C 126.859375 59.582031 119.855469 76.542969 119.855469 94.578125 C 119.855469 104.144531 121.8125 113.390625 125.683594 121.996094 C 126.503906 123.777344 128.601562 124.59375 130.378906 123.777344 C 132.15625 122.957031 132.972656 120.859375 132.15625 119.082031 C 129.203125 112.464844 127.570312 105.425781 127.144531 98.132812 L 130.519531 98.132812 C 132.476562 98.132812 134.074219 96.53125 134.074219 94.578125 C 134.074219 92.621094 132.476562 91.019531 130.519531 91.019531 L 127.144531 91.019531 C 127.925781 77.398438 133.222656 64.667969 142.285156 54.457031 L 142.960938 55.132812 C 143.671875 55.847656 144.5625 56.164062 145.484375 56.164062 C 146.410156 56.164062 147.296875 55.808594 148.007812 55.132812 C 149.394531 53.746094 149.394531 51.507812 148.007812 50.121094 L 147.332031 49.445312 C 157.535156 40.375 170.296875 35.074219 183.910156 34.292969 C 184.019531 36.179688 185.546875 37.671875 187.429688 37.671875 C 189.316406 37.671875 190.84375 36.179688 190.949219 34.292969 C 204.566406 35.074219 217.328125 40.339844 227.527344 49.445312 L 226.851562 50.121094 C 225.464844 51.507812 225.464844 53.746094 226.851562 55.132812 C 227.5625 55.847656 228.453125 56.164062 229.375 56.164062 C 230.300781 56.164062 231.191406 55.808594 231.902344 55.132812 L 232.574219 54.457031 C 241.640625 64.667969 246.902344 77.433594 247.71875 91.019531 L 244.34375 91.019531 C 242.386719 91.019531 240.789062 92.621094 240.789062 94.578125 C 240.789062 96.53125 242.386719 98.132812 244.34375 98.132812 L 247.71875 98.132812 C 247.292969 105.425781 245.65625 112.464844 242.707031 119.082031 C 241.890625 120.859375 242.707031 122.992188 244.484375 123.777344 C 244.945312 123.988281 245.445312 124.097656 245.941406 124.097656 C 247.292969 124.097656 248.609375 123.3125 249.175781 121.996094 C 253.050781 113.390625 255.007812 104.144531 255.007812 94.578125 C 255.007812 76.542969 248.003906 59.582031 235.242188 46.777344 Z M 235.171875 46.777344 " fill-opacity="1" fill-rule="nonzero"/></g><path fill="#000000" d="M 187.394531 204.828125 C 186.96875 204.828125 177.15625 204.722656 167.417969 196.933594 C 166.566406 196.257812 166.066406 195.226562 166.066406 194.160156 L 166.066406 189.394531 C 166.066406 187.4375 167.667969 185.835938 169.621094 185.835938 C 171.578125 185.835938 173.175781 187.4375 173.175781 189.394531 L 173.175781 192.382812 C 180.429688 197.574219 187.324219 197.714844 187.429688 197.714844 C 187.464844 197.714844 194.363281 197.574219 201.613281 192.382812 L 201.613281 189.394531 C 201.613281 187.4375 203.214844 185.835938 205.167969 185.835938 C 207.125 185.835938 208.722656 187.4375 208.722656 189.394531 L 208.722656 194.160156 C 208.722656 195.226562 208.226562 196.257812 207.375 196.933594 C 197.632812 204.722656 187.785156 204.828125 187.394531 204.828125 Z M 187.394531 204.828125 " fill-opacity="1" fill-rule="nonzero"/><path fill="#000000" d="M 187.394531 233.28125 C 187.21875 233.28125 187.039062 233.28125 186.863281 233.246094 C 169.835938 230.648438 163.863281 219.910156 162.726562 212.867188 C 151.992188 207.960938 151.847656 194.765625 151.847656 194.160156 C 151.847656 192.203125 153.449219 190.601562 155.402344 190.601562 L 169.621094 190.601562 C 171.578125 190.601562 173.175781 192.203125 173.175781 194.160156 C 173.175781 196.117188 171.578125 197.714844 169.621094 197.714844 L 159.417969 197.714844 C 160.167969 200.953125 162.085938 205.433594 167.097656 206.925781 C 168.589844 207.390625 169.621094 208.777344 169.621094 210.34375 C 169.621094 210.839844 170.046875 223.253906 187.394531 226.132812 C 204.742188 223.253906 205.167969 210.839844 205.167969 210.304688 C 205.167969 208.777344 206.199219 207.390625 207.691406 206.925781 C 212.667969 205.433594 214.589844 200.953125 215.371094 197.714844 L 205.167969 197.714844 C 203.214844 197.714844 201.613281 196.117188 201.613281 194.160156 C 201.613281 192.203125 203.214844 190.601562 205.167969 190.601562 L 219.386719 190.601562 C 221.34375 190.601562 222.941406 192.203125 222.941406 194.160156 C 222.941406 194.765625 222.800781 207.957031 212.066406 212.867188 C 210.929688 219.910156 204.957031 230.648438 187.929688 233.246094 C 187.75 233.246094 187.574219 233.28125 187.394531 233.28125 Z M 187.394531 233.28125 " fill-opacity="1" fill-rule="nonzero"/><g clip-path="url(#a860721ab3)"><path fill="#000000" d="M 112.746094 240.394531 C 110.792969 240.394531 109.191406 238.792969 109.191406 236.839844 C 109.191406 217.207031 121.632812 199.671875 140.117188 193.234375 C 141.964844 192.59375 143.992188 193.554688 144.632812 195.441406 C 145.273438 197.289062 144.3125 199.316406 142.429688 199.957031 C 126.789062 205.398438 116.265625 220.230469 116.265625 236.875 C 116.265625 238.828125 114.664062 240.429688 112.710938 240.429688 Z M 112.746094 240.394531 " fill-opacity="1" fill-rule="nonzero"/></g><g clip-path="url(#f160589fa6)"><path fill="#000000" d="M 262.042969 240.394531 C 260.089844 240.394531 258.488281 238.792969 258.488281 236.839844 C 258.488281 220.230469 247.96875 205.398438 232.328125 199.921875 C 230.480469 199.28125 229.484375 197.253906 230.125 195.40625 C 230.761719 193.554688 232.789062 192.558594 234.636719 193.199219 C 253.121094 199.636719 265.5625 217.171875 265.5625 236.800781 C 265.5625 238.757812 263.964844 240.359375 262.007812 240.359375 Z M 262.042969 240.394531 " fill-opacity="1" fill-rule="nonzero"/></g><path fill="#000000" d="M 190.949219 215.5 C 190.949219 215.96875 190.859375 216.425781 190.679688 216.859375 C 190.5 217.296875 190.242188 217.679688 189.910156 218.015625 C 189.574219 218.347656 189.191406 218.605469 188.757812 218.785156 C 188.320312 218.964844 187.867188 219.054688 187.394531 219.054688 C 186.925781 219.054688 186.472656 218.964844 186.035156 218.785156 C 185.601562 218.605469 185.214844 218.347656 184.882812 218.015625 C 184.546875 217.679688 184.292969 217.296875 184.113281 216.859375 C 183.929688 216.425781 183.839844 215.96875 183.839844 215.5 C 183.839844 215.027344 183.929688 214.574219 184.113281 214.136719 C 184.292969 213.703125 184.546875 213.316406 184.882812 212.984375 C 185.214844 212.652344 185.601562 212.394531 186.035156 212.214844 C 186.472656 212.03125 186.925781 211.941406 187.394531 211.941406 C 187.867188 211.941406 188.320312 212.03125 188.757812 212.214844 C 189.191406 212.394531 189.574219 212.652344 189.910156 212.984375 C 190.242188 213.316406 190.5 213.703125 190.679688 214.136719 C 190.859375 214.574219 190.949219 215.027344 190.949219 215.5 Z M 190.949219 215.5 " fill-opacity="1" fill-rule="nonzero"/><path fill="#000000" d="M 237.160156 187.046875 C 235.207031 187.046875 233.605469 185.445312 233.605469 183.488281 L 233.605469 155.039062 C 233.605469 153.082031 235.207031 151.480469 237.160156 151.480469 C 239.117188 151.480469 240.714844 153.082031 240.714844 155.039062 L 240.714844 183.488281 C 240.714844 185.445312 239.117188 187.046875 237.160156 187.046875 Z M 237.160156 187.046875 " fill-opacity="1" fill-rule="nonzero"/><path fill="#000000" d="M 137.628906 187.046875 C 135.675781 187.046875 134.074219 185.445312 134.074219 183.488281 L 134.074219 155.039062 C 134.074219 153.082031 135.675781 151.480469 137.628906 151.480469 C 139.585938 151.480469 141.183594 153.082031 141.183594 155.039062 L 141.183594 183.488281 C 141.183594 185.445312 139.585938 187.046875 137.628906 187.046875 Z M 137.628906 187.046875 " fill-opacity="1" fill-rule="nonzero"/><path fill="#000000" d="M 187.394531 130.140625 C 185.441406 130.140625 183.839844 128.542969 183.839844 126.585938 L 183.839844 123.027344 C 183.839844 121.074219 185.441406 119.472656 187.394531 119.472656 C 189.351562 119.472656 190.949219 121.074219 190.949219 123.027344 L 190.949219 126.585938 C 190.949219 128.542969 189.351562 130.140625 187.394531 130.140625 Z M 187.394531 130.140625 " fill-opacity="1" fill-rule="nonzero"/><g clip-path="url(#ac7ed25c36)"><path fill="#000000" d="M 271.832031 257.832031 C 242.054688 249.738281 219.761719 256.570312 205.128906 265.238281 C 225.132812 244.804688 255.65625 238.085938 265.429688 236.421875 Z M 236.625 213.230469 L 245.027344 233.378906 C 229.191406 238.316406 208.5 247.902344 194.496094 265.582031 C 203.355469 234.644531 227.59375 218.339844 236.625 213.230469 Z M 138.3125 213.230469 C 147.34375 218.339844 171.578125 234.585938 180.4375 265.640625 C 166.433594 247.960938 145.742188 238.375 129.910156 233.4375 Z M 109.503906 236.421875 C 119.277344 238.085938 149.800781 244.804688 169.804688 265.238281 C 155.171875 256.570312 132.882812 249.738281 103.101562 257.832031 Z M 200.328125 295.203125 L 174.605469 295.203125 C 168.949219 287.855469 144.484375 264.261719 77.667969 292.21875 L 83.441406 273.449219 C 150.085938 240.957031 183.007812 285.558594 184.382812 287.511719 C 184.4375 287.570312 184.496094 287.570312 184.550781 287.625 C 184.609375 287.742188 184.667969 287.855469 184.78125 287.914062 C 184.839844 287.972656 184.839844 287.972656 184.839844 288.027344 C 184.953125 288.144531 185.066406 288.199219 185.238281 288.257812 C 185.351562 288.316406 185.46875 288.429688 185.582031 288.488281 C 185.695312 288.542969 185.808594 288.660156 185.980469 288.71875 C 186.039062 288.71875 186.097656 288.773438 186.097656 288.773438 C 186.324219 288.890625 186.609375 288.890625 186.894531 288.945312 C 187.066406 288.945312 187.183594 289.0625 187.351562 289.0625 C 187.410156 289.0625 187.46875 289.0625 187.523438 289.0625 C 187.582031 289.0625 187.640625 289.0625 187.695312 289.0625 C 187.867188 289.0625 187.980469 289.003906 188.152344 288.945312 C 188.4375 288.890625 188.667969 288.890625 188.953125 288.773438 C 189.011719 288.773438 189.066406 288.71875 189.066406 288.71875 C 189.238281 288.660156 189.355469 288.542969 189.46875 288.488281 C 189.582031 288.429688 189.695312 288.371094 189.8125 288.257812 C 189.925781 288.144531 190.097656 288.085938 190.210938 288.027344 C 190.269531 287.972656 190.269531 287.972656 190.269531 287.914062 C 190.382812 287.796875 190.441406 287.742188 190.496094 287.625 C 190.554688 287.570312 190.609375 287.570312 190.667969 287.511719 C 192.039062 285.558594 224.964844 240.957031 291.609375 273.449219 L 297.382812 292.21875 C 230.507812 264.261719 205.988281 287.914062 200.328125 295.203125 Z M 200.328125 295.203125 " fill-opacity="1" fill-rule="nonzero"/></g><g fill="#000000" fill-opacity="1"><g transform="translate(37.570315, 329.214792)"><g><path d="M 6.933594 0 L 11.183594 0 C 10.917969 -0.886719 10.785156 -2.214844 10.785156 -3.722656 L 10.785156 -12.492188 L 14.617188 -12.492188 C 16.058594 -12.492188 16.898438 -12.359375 17.628906 -12.113281 L 16.941406 -15.503906 L 1.152344 -15.503906 L 0.464844 -12.113281 C 1.21875 -12.378906 2.039062 -12.492188 3.476562 -12.492188 L 7.332031 -12.492188 L 7.332031 -3.722656 C 7.332031 -2.214844 7.175781 -0.886719 6.933594 0 Z M 6.933594 0 "/></g></g></g><g fill="#000000" fill-opacity="1"><g transform="translate(55.633954, 329.214792)"><g><path d="M 1.617188 0 L 5.78125 0 C 5.492188 -0.796875 5.382812 -1.972656 5.382812 -3.234375 L 5.359375 -5.183594 C 5.359375 -7.265625 7.265625 -8.925781 9.390625 -8.925781 C 11.515625 -8.925781 12.867188 -7.707031 12.867188 -5.648438 L 12.867188 -3.234375 C 12.867188 -1.75 12.710938 -0.886719 12.46875 0 L 16.609375 0 C 16.34375 -0.886719 16.210938 -1.882812 16.210938 -3.367188 L 16.210938 -6.355469 C 16.210938 -9.457031 14.242188 -11.382812 10.695312 -11.382812 C 8.460938 -11.382812 6.378906 -10.320312 5.582031 -8.082031 L 5.382812 -8.082031 L 5.382812 -12.027344 C 5.382812 -13.53125 5.515625 -14.640625 5.78125 -15.503906 L 1.617188 -15.503906 C 1.882812 -14.640625 2.015625 -13.53125 2.015625 -12.027344 L 2.015625 -3.476562 C 2.015625 -1.972656 1.882812 -0.886719 1.617188 0 Z M 1.617188 0 "/></g></g></g><g fill="#000000" fill-opacity="1"><g transform="translate(73.764003, 329.214792)"><g><path d="M 8.96875 0.308594 C 11.230469 0.308594 13.929688 -0.15625 15.28125 -0.953125 L 15.214844 -3.34375 C 14.019531 -2.371094 11.871094 -1.839844 9.722656 -1.839844 C 6.867188 -1.839844 4.207031 -3.167969 4.007812 -5.425781 L 4.140625 -5.535156 C 5.734375 -4.761719 7.53125 -4.273438 9.765625 -4.273438 C 13.179688 -4.273438 15.503906 -5.226562 15.503906 -7.507812 C 15.503906 -9.632812 13.023438 -11.382812 8.683594 -11.382812 C 4.140625 -11.382812 0.953125 -8.992188 0.953125 -5.535156 C 0.953125 -2.015625 4.230469 0.308594 8.96875 0.308594 Z M 8.882812 -5.867188 C 7.132812 -5.867188 5.359375 -6.246094 4.054688 -6.820312 C 4.453125 -8.417969 6.578125 -9.347656 8.636719 -9.347656 C 11.097656 -9.347656 12.402344 -8.417969 12.402344 -7.484375 C 12.402344 -6.289062 10.832031 -5.867188 8.882812 -5.867188 Z M 8.882812 -5.867188 "/></g></g></g><g fill="#000000" fill-opacity="1"><g transform="translate(90.189513, 329.214792)"><g/></g></g><g fill="#000000" fill-opacity="1"><g transform="translate(96.40996, 329.214792)"><g><path d="M 9.613281 0.308594 C 14.660156 0.308594 17.871094 -1.484375 17.871094 -4.453125 C 17.871094 -10.785156 4.695312 -7.839844 4.695312 -11.207031 C 4.695312 -12.535156 6.910156 -12.890625 9.414062 -12.890625 C 12.027344 -12.890625 14.683594 -12.246094 16.324219 -11.296875 L 16.324219 -14.574219 C 14.574219 -15.304688 11.804688 -15.8125 9.28125 -15.8125 C 4.785156 -15.8125 1.128906 -14.242188 1.128906 -11.25 C 1.128906 -4.851562 14.285156 -7.664062 14.285156 -4.429688 C 14.285156 -3.054688 12.359375 -2.589844 9.546875 -2.589844 C 6.355469 -2.589844 3.300781 -3.300781 0.972656 -4.785156 L 0.820312 -1.261719 C 3.234375 -0.308594 6.933594 0.308594 9.613281 0.308594 Z M 9.613281 0.308594 "/></g></g></g><g fill="#000000" fill-opacity="1"><g transform="translate(115.137701, 329.214792)"><g><path d="M 6.402344 0.308594 C 8.992188 0.308594 10.875 -0.6875 11.5625 -1.992188 L 11.78125 -1.992188 L 11.78125 -1.726562 C 11.78125 -0.996094 11.648438 -0.375 11.449219 0 L 15.4375 0 C 15.148438 -0.820312 15.039062 -1.707031 15.039062 -3.386719 L 15.039062 -6.800781 C 15.039062 -10.230469 11.980469 -11.382812 7.996094 -11.382812 C 5.957031 -11.382812 3.855469 -11.03125 2.390625 -10.519531 L 2.390625 -8.328125 C 3.542969 -8.96875 5.46875 -9.433594 7.417969 -9.433594 C 10.097656 -9.433594 11.78125 -8.636719 11.78125 -6.46875 L 11.78125 -5.003906 L 11.539062 -5.003906 C 10.851562 -6.203125 8.96875 -7.21875 6.421875 -7.21875 C 2.769531 -7.21875 0.839844 -5.691406 0.839844 -3.476562 C 0.839844 -1.261719 2.789062 0.308594 6.402344 0.308594 Z M 7.796875 -1.683594 C 5.425781 -1.683594 4.074219 -2.414062 4.074219 -3.542969 C 4.074219 -4.671875 5.425781 -5.382812 7.796875 -5.382812 C 9.765625 -5.382812 11.671875 -4.652344 11.671875 -3.542969 C 11.671875 -2.304688 9.765625 -1.683594 7.796875 -1.683594 Z M 7.796875 -1.683594 "/></g></g></g><g fill="#000000" fill-opacity="1"><g transform="translate(131.939538, 329.214792)"><g><path d="M 1.617188 0 L 5.757812 0 C 5.46875 -0.664062 5.335938 -1.394531 5.335938 -2.457031 L 5.335938 -4.9375 C 5.335938 -7.152344 7.550781 -8.835938 9.613281 -8.835938 C 10.628906 -8.835938 11.804688 -8.460938 12.3125 -7.972656 L 12.3125 -10.984375 C 11.804688 -11.207031 10.875 -11.382812 10.097656 -11.382812 C 7.882812 -11.382812 6.113281 -10.03125 5.558594 -7.640625 L 5.359375 -7.640625 L 5.359375 -8.617188 C 5.359375 -9.523438 5.601562 -10.542969 5.914062 -11.074219 L 1.617188 -11.074219 C 1.859375 -10.1875 1.992188 -9.28125 1.992188 -7.773438 L 1.992188 -3.144531 C 1.992188 -1.660156 1.859375 -0.863281 1.617188 0 Z M 1.617188 0 "/></g></g></g><g fill="#000000" fill-opacity="1"><g transform="translate(144.823158, 329.214792)"><g><path d="M 6.402344 0.308594 C 8.992188 0.308594 10.875 -0.6875 11.5625 -1.992188 L 11.78125 -1.992188 L 11.78125 -1.726562 C 11.78125 -0.996094 11.648438 -0.375 11.449219 0 L 15.4375 0 C 15.148438 -0.820312 15.039062 -1.707031 15.039062 -3.386719 L 15.039062 -6.800781 C 15.039062 -10.230469 11.980469 -11.382812 7.996094 -11.382812 C 5.957031 -11.382812 3.855469 -11.03125 2.390625 -10.519531 L 2.390625 -8.328125 C 3.542969 -8.96875 5.46875 -9.433594 7.417969 -9.433594 C 10.097656 -9.433594 11.78125 -8.636719 11.78125 -6.46875 L 11.78125 -5.003906 L 11.539062 -5.003906 C 10.851562 -6.203125 8.96875 -7.21875 6.421875 -7.21875 C 2.769531 -7.21875 0.839844 -5.691406 0.839844 -3.476562 C 0.839844 -1.261719 2.789062 0.308594 6.402344 0.308594 Z M 7.796875 -1.683594 C 5.425781 -1.683594 4.074219 -2.414062 4.074219 -3.542969 C 4.074219 -4.671875 5.425781 -5.382812 7.796875 -5.382812 C 9.765625 -5.382812 11.671875 -4.652344 11.671875 -3.542969 C 11.671875 -2.304688 9.765625 -1.683594 7.796875 -1.683594 Z M 7.796875 -1.683594 "/></g></g></g><g fill="#000000" fill-opacity="1"><g transform="translate(161.624995, 329.214792)"><g><path d="M 7.53125 0.308594 C 11.714844 0.308594 13.976562 -1.21875 13.976562 -3.253906 C 13.976562 -7.773438 4.253906 -5.734375 4.253906 -7.949219 C 4.253906 -8.949219 5.847656 -9.234375 7.664062 -9.234375 C 9.613281 -9.234375 11.914062 -8.683594 12.976562 -8.128906 L 12.890625 -10.542969 C 11.496094 -11.007812 9.125 -11.382812 7.398438 -11.382812 C 3.609375 -11.382812 1.105469 -10.011719 1.105469 -8.015625 C 1.105469 -3.566406 10.808594 -5.714844 10.808594 -3.320312 C 10.808594 -2.324219 9.5 -1.925781 7.308594 -1.925781 C 5.160156 -1.925781 2.324219 -2.546875 0.820312 -3.476562 L 0.773438 -0.863281 C 2.257812 -0.265625 5.515625 0.308594 7.53125 0.308594 Z M 7.53125 0.308594 "/></g></g></g><g fill="#000000" fill-opacity="1"><g transform="translate(176.390241, 329.214792)"><g><path d="M 4.386719 0 L 8.484375 0 L 11.363281 -7.730469 L 11.582031 -7.730469 L 14.460938 0 L 18.558594 0 C 18.605469 -0.863281 18.9375 -2.039062 19.335938 -3.054688 L 21.285156 -8.105469 C 21.75 -9.347656 22.257812 -10.386719 22.722656 -11.074219 L 18.738281 -11.074219 C 18.714844 -10.5625 18.605469 -9.945312 18.25 -8.949219 L 16.390625 -4.140625 C 16.234375 -3.742188 16.101562 -3.320312 15.945312 -2.921875 L 15.746094 -2.921875 L 12.734375 -11.074219 L 10.210938 -11.074219 L 7.199219 -2.902344 L 7 -2.902344 C 6.84375 -3.320312 6.710938 -3.742188 6.535156 -4.1875 L 4.71875 -8.949219 C 4.339844 -9.945312 4.230469 -10.5625 4.1875 -11.074219 L 0.222656 -11.074219 C 0.6875 -10.386719 1.171875 -9.347656 1.640625 -8.105469 L 3.609375 -3.035156 C 4.007812 -2.039062 4.339844 -0.839844 4.386719 0 Z M 4.386719 0 "/></g></g></g><g fill="#000000" fill-opacity="1"><g transform="translate(199.323971, 329.214792)"><g><path d="M 8.371094 0.308594 C 12.84375 0.308594 15.792969 -2.082031 15.792969 -5.535156 C 15.792969 -8.992188 12.867188 -11.382812 8.371094 -11.382812 C 3.875 -11.382812 0.929688 -8.992188 0.929688 -5.535156 C 0.929688 -2.082031 3.875 0.308594 8.371094 0.308594 Z M 8.371094 -1.773438 C 5.933594 -1.773438 4.097656 -3.210938 4.097656 -5.535156 C 4.097656 -7.863281 5.933594 -9.324219 8.371094 -9.324219 C 10.808594 -9.324219 12.644531 -7.863281 12.644531 -5.535156 C 12.644531 -3.210938 10.808594 -1.773438 8.371094 -1.773438 Z M 8.371094 -1.773438 "/></g></g></g><g fill="#000000" fill-opacity="1"><g transform="translate(216.037265, 329.214792)"><g><path d="M 7.996094 0.308594 C 9.167969 0.308594 10.652344 0.0429688 11.472656 -0.398438 L 11.472656 -2.902344 C 10.917969 -2.4375 9.855469 -2.125 8.882812 -2.125 C 7.441406 -2.125 6.289062 -2.789062 6.289062 -4.519531 L 6.289062 -9.125 L 11.296875 -9.125 L 11.296875 -11.074219 L 6.289062 -11.074219 L 6.289062 -15.414062 L 3.035156 -14.707031 L 3.035156 -11.074219 L 0.332031 -11.074219 L 0.332031 -9.125 L 3.035156 -9.125 L 3.035156 -3.589844 C 3.035156 -0.707031 5.25 0.308594 7.996094 0.308594 Z M 7.996094 0.308594 "/></g></g></g><g fill="#000000" fill-opacity="1"><g transform="translate(227.858324, 329.214792)"><g><path d="M 3.542969 -12.710938 C 4.738281 -12.710938 5.535156 -13.355469 5.535156 -14.21875 C 5.535156 -15.082031 4.738281 -15.726562 3.542969 -15.726562 C 2.347656 -15.726562 1.550781 -15.082031 1.550781 -14.21875 C 1.550781 -13.355469 2.347656 -12.710938 3.542969 -12.710938 Z M 1.460938 0 L 5.625 0 C 5.359375 -0.886719 5.226562 -1.992188 5.226562 -3.476562 L 5.226562 -9.015625 C 5.226562 -9.921875 5.269531 -10.628906 5.359375 -11.074219 C 4.363281 -10.675781 2.769531 -10.675781 1.726562 -11.074219 C 1.816406 -10.628906 1.859375 -9.921875 1.859375 -9.015625 L 1.859375 -3.476562 C 1.859375 -1.992188 1.726562 -0.886719 1.460938 0 Z M 1.460938 0 "/></g></g></g><g fill="#000000" fill-opacity="1"><g transform="translate(234.919958, 329.214792)"><g/></g></g><g fill="#000000" fill-opacity="1"><g transform="translate(241.140416, 329.214792)"><g><path d="M 1.792969 0 L 6.046875 0 C 5.78125 -0.863281 5.648438 -2.171875 5.648438 -3.65625 L 5.667969 -8.371094 L 5.847656 -8.371094 C 6.402344 -5.335938 9.015625 -3.964844 12.558594 -3.964844 C 16.234375 -3.964844 18.957031 -6.136719 18.957031 -9.832031 C 18.957031 -13.488281 15.878906 -15.503906 11.714844 -15.503906 L 1.792969 -15.503906 C 2.039062 -14.640625 2.214844 -13.289062 2.214844 -11.78125 L 2.214844 -3.722656 C 2.214844 -2.214844 2.058594 -0.863281 1.792969 0 Z M 11.25 -6.777344 C 8.460938 -6.777344 5.691406 -8.347656 5.667969 -11.050781 L 5.667969 -12.558594 C 7.417969 -12.734375 9.191406 -12.757812 11.183594 -12.757812 C 13.929688 -12.757812 15.503906 -11.648438 15.503906 -9.832031 C 15.503906 -7.929688 13.511719 -6.777344 11.25 -6.777344 Z M 11.25 -6.777344 "/></g></g></g><g fill="#000000" fill-opacity="1"><g transform="translate(260.687221, 329.214792)"><g><path d="M 1.617188 0 L 5.757812 0 C 5.46875 -0.664062 5.335938 -1.394531 5.335938 -2.457031 L 5.335938 -4.9375 C 5.335938 -7.152344 7.550781 -8.835938 9.613281 -8.835938 C 10.628906 -8.835938 11.804688 -8.460938 12.3125 -7.972656 L 12.3125 -10.984375 C 11.804688 -11.207031 10.875 -11.382812 10.097656 -11.382812 C 7.882812 -11.382812 6.113281 -10.03125 5.558594 -7.640625 L 5.359375 -7.640625 L 5.359375 -8.617188 C 5.359375 -9.523438 5.601562 -10.542969 5.914062 -11.074219 L 1.617188 -11.074219 C 1.859375 -10.1875 1.992188 -9.28125 1.992188 -7.773438 L 1.992188 -3.144531 C 1.992188 -1.660156 1.859375 -0.863281 1.617188 0 Z M 1.617188 0 "/></g></g></g><g fill="#000000" fill-opacity="1"><g transform="translate(273.570842, 329.214792)"><g><path d="M 8.371094 0.308594 C 12.84375 0.308594 15.792969 -2.082031 15.792969 -5.535156 C 15.792969 -8.992188 12.867188 -11.382812 8.371094 -11.382812 C 3.875 -11.382812 0.929688 -8.992188 0.929688 -5.535156 C 0.929688 -2.082031 3.875 0.308594 8.371094 0.308594 Z M 8.371094 -1.773438 C 5.933594 -1.773438 4.097656 -3.210938 4.097656 -5.535156 C 4.097656 -7.863281 5.933594 -9.324219 8.371094 -9.324219 C 10.808594 -9.324219 12.644531 -7.863281 12.644531 -5.535156 C 12.644531 -3.210938 10.808594 -1.773438 8.371094 -1.773438 Z M 8.371094 -1.773438 "/></g></g></g><g fill="#000000" fill-opacity="1"><g transform="translate(290.284135, 329.214792)"><g><path d="M 4.054688 -12.710938 C 5.226562 -12.710938 6.023438 -13.355469 6.023438 -14.21875 C 6.023438 -15.082031 5.226562 -15.726562 4.054688 -15.726562 C 2.855469 -15.726562 2.058594 -15.082031 2.058594 -14.21875 C 2.058594 -13.355469 2.855469 -12.710938 4.054688 -12.710938 Z M 0.597656 4.984375 C 3.5 4.984375 5.714844 3.632812 5.714844 0.664062 L 5.714844 -9.125 C 5.714844 -10.054688 5.757812 -10.628906 5.847656 -11.074219 C 4.851562 -10.675781 3.253906 -10.675781 2.214844 -11.074219 C 2.324219 -10.628906 2.371094 -10.054688 2.371094 -9.125 L 2.371094 0.6875 C 2.371094 2.347656 1.308594 3.054688 -0.0664062 3.054688 C -0.773438 3.054688 -1.59375 2.878906 -2.304688 2.546875 L -2.28125 4.5625 C -1.417969 4.828125 -0.332031 4.984375 0.597656 4.984375 Z M 0.597656 4.984375 "/></g></g></g><g fill="#000000" fill-opacity="1"><g transform="translate(297.633553, 329.214792)"><g><path d="M 8.96875 0.308594 C 11.230469 0.308594 13.929688 -0.15625 15.28125 -0.953125 L 15.214844 -3.34375 C 14.019531 -2.371094 11.871094 -1.839844 9.722656 -1.839844 C 6.867188 -1.839844 4.207031 -3.167969 4.007812 -5.425781 L 4.140625 -5.535156 C 5.734375 -4.761719 7.53125 -4.273438 9.765625 -4.273438 C 13.179688 -4.273438 15.503906 -5.226562 15.503906 -7.507812 C 15.503906 -9.632812 13.023438 -11.382812 8.683594 -11.382812 C 4.140625 -11.382812 0.953125 -8.992188 0.953125 -5.535156 C 0.953125 -2.015625 4.230469 0.308594 8.96875 0.308594 Z M 8.882812 -5.867188 C 7.132812 -5.867188 5.359375 -6.246094 4.054688 -6.820312 C 4.453125 -8.417969 6.578125 -9.347656 8.636719 -9.347656 C 11.097656 -9.347656 12.402344 -8.417969 12.402344 -7.484375 C 12.402344 -6.289062 10.832031 -5.867188 8.882812 -5.867188 Z M 8.882812 -5.867188 "/></g></g></g><g fill="#000000" fill-opacity="1"><g transform="translate(314.059051, 329.214792)"><g><path d="M 8.882812 0.308594 C 10.675781 0.308594 13.023438 -0.0664062 14.261719 -0.621094 L 14.21875 -3.253906 C 13.023438 -2.4375 11.164062 -1.992188 9.5 -1.992188 C 6.445312 -1.992188 4.164062 -3.300781 4.164062 -5.558594 C 4.164062 -7.816406 6.378906 -9.101562 9.347656 -9.101562 C 10.898438 -9.101562 12.625 -8.636719 13.621094 -8.015625 L 13.820312 -10.496094 C 12.757812 -11.007812 10.519531 -11.40625 8.902344 -11.40625 C 4.054688 -11.40625 0.953125 -8.992188 0.953125 -5.558594 C 0.953125 -2.105469 4.03125 0.308594 8.882812 0.308594 Z M 8.882812 0.308594 "/></g></g></g><g fill="#000000" fill-opacity="1"><g transform="translate(329.156348, 329.214792)"><g><path d="M 7.996094 0.308594 C 9.167969 0.308594 10.652344 0.0429688 11.472656 -0.398438 L 11.472656 -2.902344 C 10.917969 -2.4375 9.855469 -2.125 8.882812 -2.125 C 7.441406 -2.125 6.289062 -2.789062 6.289062 -4.519531 L 6.289062 -9.125 L 11.296875 -9.125 L 11.296875 -11.074219 L 6.289062 -11.074219 L 6.289062 -15.414062 L 3.035156 -14.707031 L 3.035156 -11.074219 L 0.332031 -11.074219 L 0.332031 -9.125 L 3.035156 -9.125 L 3.035156 -3.589844 C 3.035156 -0.707031 5.25 0.308594 7.996094 0.308594 Z M 7.996094 0.308594 "/></g></g></g></svg>